<mxfile>
    <diagram id="JWpnAdNwxmQOr5P9iAD4" name="Page-1">
        <mxGraphModel dx="5390" dy="4060" grid="1" gridSize="10" guides="1" tooltips="1" connect="1" arrows="1" fold="1" page="1" pageScale="1" pageWidth="2339" pageHeight="3300" math="0" shadow="0">
            <root>
                <mxCell id="0"/>
                <mxCell id="1" parent="0"/>
                <mxCell id="346" value="" style="endArrow=none;html=1;strokeWidth=4;fillColor=#dae8fc;strokeColor=#6c8ebf;fontSize=33;labelBackgroundColor=none;sketch=0;" edge="1" parent="1">
                    <mxGeometry x="176.36000000000013" y="20" width="53.41393158259918" height="53.41402901033333" as="geometry">
                        <mxPoint x="949.985843621399" y="3578.6925264294205" as="sourcePoint"/>
                        <mxPoint x="113.63358024691365" y="505.0861728152913" as="targetPoint"/>
                        <Array as="points">
                            <mxPoint x="929.0770370370369" y="3265.0592250402233"/>
                            <mxPoint x="887.2594238683128" y="2909.608150132467"/>
                            <mxPoint x="803.624197530864" y="2491.4304149468717"/>
                            <mxPoint x="657.2625514403289" y="1968.7082459648764"/>
                            <mxPoint x="364.5392592592593" y="1153.2616623529648"/>
                            <mxPoint x="239.08641975308637" y="797.8105874452085"/>
                        </Array>
                    </mxGeometry>
                </mxCell>
                <mxCell id="347" value="" style="endArrow=none;html=1;strokeWidth=4;fillColor=#dae8fc;strokeColor=#6c8ebf;fontSize=33;labelBackgroundColor=none;sketch=0;" edge="1" parent="1">
                    <mxGeometry x="176.36000000000013" y="20" width="53.41393158259918" height="53.41402901033333" as="geometry">
                        <mxPoint x="937.440559670782" y="3578.6925264294205" as="sourcePoint"/>
                        <mxPoint x="101.08829629629622" y="513.4497275190024" as="targetPoint"/>
                        <Array as="points">
                            <mxPoint x="903.9864691358025" y="3181.423678003104"/>
                            <mxPoint x="862.1688559670783" y="2888.699263373188"/>
                            <mxPoint x="824.5330041152265" y="2658.70150902111"/>
                            <mxPoint x="778.5336296296296" y="2470.5215281875917"/>
                            <mxPoint x="653.0807901234566" y="2031.4349062427154"/>
                            <mxPoint x="527.6279506172839" y="1675.9838313349592"/>
                            <mxPoint x="402.17511111111116" y="1299.623869667923"/>
                            <mxPoint x="255.81346502057613" y="902.3550212416067"/>
                        </Array>
                    </mxGeometry>
                </mxCell>
                <mxCell id="348" value="" style="endArrow=none;html=1;strokeWidth=4;fontSize=33;labelBackgroundColor=none;sketch=0;" edge="1" parent="1">
                    <mxGeometry x="176.36000000000013" y="20" width="53.41393158259918" height="53.41402901033333" as="geometry">
                        <mxPoint x="908.1682304526748" y="2512.3393017061508" as="sourcePoint"/>
                        <mxPoint x="385.4480658436214" y="2386.8859811504717" as="targetPoint"/>
                        <Array as="points">
                            <mxPoint x="636.3537448559669" y="2491.4304149468717"/>
                            <mxPoint x="489.99209876543205" y="2407.7948679097517"/>
                        </Array>
                    </mxGeometry>
                </mxCell>
                <mxCell id="349" value="" style="endArrow=none;html=1;strokeWidth=4;fontSize=33;labelBackgroundColor=none;sketch=0;" edge="1" parent="1">
                    <mxGeometry x="176.36000000000013" y="20" width="53.41393158259918" height="53.41402901033333" as="geometry">
                        <mxPoint x="439.810962962963" y="2395.2495358541837" as="sourcePoint"/>
                        <mxPoint x="636.3537448559669" y="2303.2504341133535" as="targetPoint"/>
                        <Array as="points">
                            <mxPoint x="448.17448559670765" y="2311.6139888170655"/>
                            <mxPoint x="510.90090534979436" y="2303.2504341133535"/>
                            <mxPoint x="573.6273251028806" y="2303.2504341133535"/>
                        </Array>
                    </mxGeometry>
                </mxCell>
                <mxCell id="350" value="" style="endArrow=none;html=1;strokeWidth=4;fontSize=33;labelBackgroundColor=none;sketch=0;" edge="1" parent="1">
                    <mxGeometry x="176.36000000000013" y="20" width="53.41393158259918" height="53.41402901033333" as="geometry">
                        <mxPoint x="29.998353909465095" y="2909.608150132467" as="sourcePoint"/>
                        <mxPoint x="636.3537448559669" y="2491.4304149468717" as="targetPoint"/>
                        <Array as="points">
                            <mxPoint x="176.36000000000013" y="2846.881489854628"/>
                            <mxPoint x="218.1776131687243" y="2763.245942817508"/>
                            <mxPoint x="301.81283950617285" y="2637.79262226183"/>
                            <mxPoint x="427.2656790123456" y="2637.79262226183"/>
                            <mxPoint x="552.7185185185185" y="2616.88373550255"/>
                            <mxPoint x="636.3537448559669" y="2595.97484874327"/>
                        </Array>
                    </mxGeometry>
                </mxCell>
                <mxCell id="351" value="" style="endArrow=none;html=1;strokeWidth=4;fontSize=33;labelBackgroundColor=none;sketch=0;" edge="1" parent="1">
                    <mxGeometry x="176.36000000000013" y="20" width="53.41393158259918" height="53.41402901033333" as="geometry">
                        <mxPoint x="489.99209876543205" y="3223.241451521664" as="sourcePoint"/>
                        <mxPoint x="657.2625514403289" y="3244.150338280944" as="targetPoint"/>
                        <Array as="points">
                            <mxPoint x="531.8097119341564" y="3223.241451521664"/>
                            <mxPoint x="552.7185185185185" y="3244.150338280944"/>
                        </Array>
                    </mxGeometry>
                </mxCell>
                <mxCell id="352" value="" style="endArrow=none;html=1;strokeWidth=4;fontSize=33;labelBackgroundColor=none;sketch=0;" edge="1" parent="1">
                    <mxGeometry x="176.36000000000013" y="20" width="53.41393158259918" height="53.41402901033333" as="geometry">
                        <mxPoint x="573.6273251028806" y="2920.062593512107" as="sourcePoint"/>
                        <mxPoint x="636.3537448559669" y="2825.972603095348" as="targetPoint"/>
                        <Array as="points">
                            <mxPoint x="594.5361316872427" y="2909.608150132467"/>
                            <mxPoint x="615.4449382716048" y="2846.881489854628"/>
                        </Array>
                    </mxGeometry>
                </mxCell>
                <mxCell id="353" value="&lt;b style=&quot;font-size: 33px;&quot;&gt;37&lt;/b&gt;" style="text;html=1;strokeColor=none;fillColor=none;align=center;verticalAlign=middle;whiteSpace=wrap;opacity=15;strokeWidth=4;perimeterSpacing=0;fontSize=33;rounded=1;labelBackgroundColor=none;sketch=0;" vertex="1" parent="1">
                    <mxGeometry x="515.0826666666667" y="2809.245493687924" width="83.63522633744856" height="41.817773518559584" as="geometry"/>
                </mxCell>
                <mxCell id="354" value="&lt;b style=&quot;font-size: 33px;&quot;&gt;34&lt;/b&gt;" style="text;html=1;strokeColor=none;fillColor=none;align=center;verticalAlign=middle;whiteSpace=wrap;fontSize=33;opacity=15;rounded=1;labelBackgroundColor=none;strokeWidth=4;sketch=0;" vertex="1" parent="1">
                    <mxGeometry x="515.0826666666667" y="2861.517710586124" width="83.63522633744856" height="41.817773518559584" as="geometry"/>
                </mxCell>
                <mxCell id="355" value="&lt;b style=&quot;font-size: 33px;&quot;&gt;27&lt;/b&gt;" style="text;html=1;strokeColor=none;fillColor=none;align=center;verticalAlign=middle;whiteSpace=wrap;fontSize=33;strokeWidth=4;rounded=1;labelBackgroundColor=none;sketch=0;" vertex="1" parent="1">
                    <mxGeometry x="515.0826666666667" y="2932.607925567674" width="83.63522633744856" height="41.817773518559584" as="geometry"/>
                </mxCell>
                <mxCell id="356" value="&lt;b style=&quot;font-size: 33px;&quot;&gt;15&lt;/b&gt;" style="text;html=1;strokeColor=none;fillColor=none;align=center;verticalAlign=middle;whiteSpace=wrap;fontSize=33;rounded=1;labelBackgroundColor=none;strokeWidth=4;sketch=0;" vertex="1" parent="1">
                    <mxGeometry x="542.2641152263373" y="2995.334585845514" width="83.63522633744856" height="41.817773518559584" as="geometry"/>
                </mxCell>
                <mxCell id="357" value="13" style="text;html=1;strokeColor=none;fillColor=none;align=center;verticalAlign=middle;whiteSpace=wrap;fontSize=33;fontStyle=1;rounded=1;labelBackgroundColor=none;strokeWidth=4;sketch=0;" vertex="1" parent="1">
                    <mxGeometry x="544.3549958847739" y="3058.061246123354" width="83.63522633744856" height="41.817773518559584" as="geometry"/>
                </mxCell>
                <mxCell id="358" value="&lt;span style=&quot;font-size: 33px;&quot;&gt;12&lt;/span&gt;" style="text;html=1;strokeColor=none;fillColor=none;align=center;verticalAlign=middle;whiteSpace=wrap;fontSize=33;fontStyle=0;fontColor=#FF1212;rounded=1;labelBackgroundColor=none;strokeWidth=4;sketch=0;" vertex="1" parent="1">
                    <mxGeometry x="636.3537448559669" y="3049.697691419642" width="83.63522633744856" height="41.817773518559584" as="geometry"/>
                </mxCell>
                <mxCell id="359" value="&lt;span style=&quot;font-size: 33px;&quot;&gt;11&lt;/span&gt;" style="text;html=1;strokeColor=none;fillColor=none;align=center;verticalAlign=middle;whiteSpace=wrap;fontSize=33;fontStyle=0;fontColor=#FF1212;rounded=1;labelBackgroundColor=none;strokeWidth=4;sketch=0;" vertex="1" parent="1">
                    <mxGeometry x="694.8984032921812" y="3139.605904484544" width="83.63522633744856" height="41.817773518559584" as="geometry"/>
                </mxCell>
                <mxCell id="360" value="&lt;span style=&quot;font-size: 33px;&quot;&gt;6&lt;/span&gt;" style="text;html=1;strokeColor=none;fillColor=none;align=center;verticalAlign=middle;whiteSpace=wrap;fontSize=33;fontStyle=0;fontColor=#FF1212;rounded=1;labelBackgroundColor=none;strokeWidth=4;sketch=0;" vertex="1" parent="1">
                    <mxGeometry x="418.9021563786009" y="3196.0598987346" width="83.63522633744856" height="41.817773518559584" as="geometry"/>
                </mxCell>
                <mxCell id="361" value="8" style="text;html=1;strokeColor=none;fillColor=none;align=center;verticalAlign=middle;whiteSpace=wrap;fontSize=33;fontStyle=0;fontColor=#FF1212;rounded=1;labelBackgroundColor=none;strokeWidth=4;sketch=0;" vertex="1" parent="1">
                    <mxGeometry x="577.8090864197529" y="3196.0598987346" width="83.63522633744856" height="41.817773518559584" as="geometry"/>
                </mxCell>
                <mxCell id="362" value="10" style="text;html=1;strokeColor=none;fillColor=none;align=center;verticalAlign=middle;whiteSpace=wrap;fontSize=33;fontStyle=1;rounded=1;labelBackgroundColor=none;strokeWidth=4;sketch=0;" vertex="1" parent="1">
                    <mxGeometry x="694.8984032921812" y="3218.1396831524" width="83.63522633744856" height="41.817773518559584" as="geometry"/>
                </mxCell>
                <mxCell id="363" value="9" style="text;html=1;strokeColor=none;fillColor=none;align=center;verticalAlign=middle;whiteSpace=wrap;fontSize=33;fontStyle=1;rounded=1;labelBackgroundColor=none;strokeWidth=4;sketch=0;" vertex="1" parent="1">
                    <mxGeometry x="611.2631769547324" y="3284.1281297646865" width="83.63522633744856" height="41.817773518559584" as="geometry"/>
                </mxCell>
                <mxCell id="364" value="5" style="text;html=1;strokeColor=none;fillColor=none;align=center;verticalAlign=middle;whiteSpace=wrap;fontSize=33;fontStyle=1;rounded=1;labelBackgroundColor=none;strokeWidth=4;sketch=0;" vertex="1" parent="1">
                    <mxGeometry x="586.172609053498" y="3348.6947720773423" width="83.63522633744856" height="41.817773518559584" as="geometry"/>
                </mxCell>
                <mxCell id="365" value="" style="verticalLabelPosition=bottom;align=center;html=1;verticalAlign=top;pointerEvents=1;dashed=0;shape=mxgraph.pid2valves.valve;valveType=gate;defState=closed;strokeWidth=4;fillColor=none;fontSize=33;rotation=-60;strokeColor=#0000FF;rounded=1;labelBackgroundColor=none;sketch=0;" vertex="1" parent="1">
                    <mxGeometry x="581.9908477366253" y="2460.0670848079517" width="41.81761316872428" height="20.908886759279792" as="geometry"/>
                </mxCell>
                <mxCell id="366" value="" style="endArrow=none;html=1;strokeWidth=4;fontSize=33;labelBackgroundColor=none;sketch=0;" edge="1" parent="1">
                    <mxGeometry x="176.36000000000013" y="20" width="53.41393158259918" height="53.41402901033333" as="geometry">
                        <mxPoint x="600.8087736625512" y="3393.3965299764923" as="sourcePoint"/>
                        <mxPoint x="548.5367572016462" y="2616.88373550255" as="targetPoint"/>
                        <Array as="points">
                            <mxPoint x="642.6263868312758" y="3244.150338280944"/>
                            <mxPoint x="705.352806584362" y="3244.150338280944"/>
                            <mxPoint x="705.352806584362" y="3097.788130965985"/>
                            <mxPoint x="621.7175802469137" y="3097.788130965985"/>
                            <mxPoint x="621.7175802469137" y="2930.517036891746"/>
                            <mxPoint x="579.8999670781895" y="2930.517036891746"/>
                            <mxPoint x="517.1735473251028" y="2888.699263373188"/>
                            <mxPoint x="517.1735473251028" y="2846.881489854628"/>
                            <mxPoint x="538.0823539094649" y="2784.154829576788"/>
                        </Array>
                    </mxGeometry>
                </mxCell>
                <mxCell id="367" value="" style="verticalLabelPosition=bottom;align=center;html=1;verticalAlign=top;pointerEvents=1;dashed=0;shape=mxgraph.pid2valves.valve;valveType=gate;defState=closed;strokeWidth=4;fillColor=none;fontSize=33;rotation=0;strokeColor=#0000FF;rounded=1;labelBackgroundColor=none;sketch=0;" vertex="1" parent="1">
                    <mxGeometry x="619.6266995884775" y="2512.3393017061508" width="41.81761316872428" height="20.908886759279792" as="geometry"/>
                </mxCell>
                <mxCell id="368" value="" style="endArrow=none;html=1;strokeWidth=4;fontSize=33;labelBackgroundColor=none;sketch=0;" edge="1" parent="1">
                    <mxGeometry x="176.36000000000013" y="20" width="53.41393158259918" height="53.41402901033333" as="geometry">
                        <mxPoint x="1389.070781893004" y="1801.4371518906382" as="sourcePoint"/>
                        <mxPoint x="2290.2403456790125" y="2244.7055511873696" as="targetPoint"/>
                        <Array as="points">
                            <mxPoint x="1370.2528559670782" y="1759.6193783720782"/>
                            <mxPoint x="1558.4321152263374" y="1701.0744954460952"/>
                            <mxPoint x="1767.520181069959" y="1680.1656086868152"/>
                            <mxPoint x="1892.9730205761316" y="1701.0744954460952"/>
                            <mxPoint x="2039.3346666666666" y="1742.8922689646552"/>
                            <mxPoint x="2206.6051193415637" y="1805.6189292424942"/>
                            <mxPoint x="2290.2403456790125" y="1868.3455895203333"/>
                            <mxPoint x="2332.0579588477362" y="1951.9811365574524"/>
                            <mxPoint x="2269.3315390946505" y="1972.8900233167324"/>
                            <mxPoint x="2290.2403456790125" y="2035.6166835945714"/>
                            <mxPoint x="2386.420855967078" y="2202.8877776688096"/>
                        </Array>
                    </mxGeometry>
                </mxCell>
                <mxCell id="369" value="" style="verticalLabelPosition=bottom;align=center;outlineConnect=0;dashed=0;html=1;verticalAlign=top;shape=mxgraph.pid.flow_sensors.rotameter;strokeWidth=4;fillColor=none;fontSize=33;rotation=-90;strokeColor=#FF1212;rounded=1;labelBackgroundColor=none;sketch=0;" vertex="1" parent="1">
                    <mxGeometry x="1550.7167655967078" y="3288.7280848517275" width="29.272329218106993" height="17.521647104276465" as="geometry"/>
                </mxCell>
                <mxCell id="370" value="" style="verticalLabelPosition=bottom;align=center;outlineConnect=0;dashed=0;html=1;verticalAlign=top;shape=mxgraph.pid.flow_sensors.rotameter;strokeWidth=6;fillColor=none;fontSize=33;rotation=-90;fontColor=#009900;strokeColor=#009900;rounded=1;labelBackgroundColor=none;sketch=0;" vertex="1" parent="1">
                    <mxGeometry x="2033.0620246913581" y="2873.6657737932655" width="29.272329218106993" height="17.521647104276465" as="geometry"/>
                </mxCell>
                <mxCell id="371" value="" style="verticalLabelPosition=bottom;align=center;outlineConnect=0;dashed=0;html=1;verticalAlign=top;shape=mxgraph.pid.flow_sensors.rotameter;strokeWidth=6;fillColor=none;fontSize=33;rotation=-90;strokeColor=#009900;rounded=1;labelBackgroundColor=none;sketch=0;" vertex="1" parent="1">
                    <mxGeometry x="1826.0648395061726" y="3095.697242290057" width="29.272329218106993" height="17.521647104276465" as="geometry"/>
                </mxCell>
                <mxCell id="372" value="" style="verticalLabelPosition=bottom;align=center;outlineConnect=0;dashed=0;html=1;verticalAlign=top;shape=mxgraph.pid.flow_sensors.rotameter;strokeWidth=4;fillColor=none;fontSize=33;rotation=-90;strokeColor=#FF1212;rounded=1;labelBackgroundColor=none;sketch=0;" vertex="1" parent="1">
                    <mxGeometry x="1125.6198189300412" y="3438.6029851422463" width="29.272329218106993" height="17.521647104276465" as="geometry"/>
                </mxCell>
                <mxCell id="373" value="" style="verticalLabelPosition=bottom;align=center;outlineConnect=0;dashed=0;html=1;verticalAlign=top;shape=mxgraph.pid.flow_sensors.rotameter;strokeWidth=4;fillColor=none;fontSize=33;rotation=-90;strokeColor=#FF1212;rounded=1;labelBackgroundColor=none;sketch=0;" vertex="1" parent="1">
                    <mxGeometry x="1338.8896460905348" y="3438.6029851422463" width="29.272329218106993" height="17.521647104276465" as="geometry"/>
                </mxCell>
                <mxCell id="374" value="" style="verticalLabelPosition=bottom;align=center;outlineConnect=0;dashed=0;html=1;verticalAlign=top;shape=mxgraph.pid.flow_sensors.rotameter;strokeWidth=6;fillColor=none;fontSize=33;rotation=-90;strokeColor=#009900;rounded=1;labelBackgroundColor=none;sketch=0;" vertex="1" parent="1">
                    <mxGeometry x="837.0782880658435" y="1821.9487698014918" width="29.272329218106993" height="17.521647104276465" as="geometry"/>
                </mxCell>
                <mxCell id="375" value="" style="verticalLabelPosition=bottom;align=center;outlineConnect=0;dashed=0;html=1;verticalAlign=top;shape=mxgraph.pid.flow_sensors.rotameter;strokeWidth=6;fillColor=none;fontSize=33;rotation=-90;fontColor=#009900;strokeColor=#009900;rounded=1;labelBackgroundColor=none;sketch=0;" vertex="1" parent="1">
                    <mxGeometry x="914.4408724279833" y="2654.519731669254" width="29.272329218106993" height="17.521647104276465" as="geometry"/>
                </mxCell>
                <mxCell id="376" value="" style="verticalLabelPosition=bottom;align=center;html=1;verticalAlign=top;pointerEvents=1;dashed=0;shape=mxgraph.pid2valves.valve;valveType=gate;defState=closed;strokeWidth=4;fillColor=none;fontSize=33;rotation=-116;strokeColor=#0000FF;rounded=1;labelBackgroundColor=none;sketch=0;" vertex="1" parent="1">
                    <mxGeometry x="1700.612" y="2420.3401999653197" width="41.81761316872428" height="20.908886759279792" as="geometry"/>
                </mxCell>
                <mxCell id="377" value="" style="verticalLabelPosition=bottom;align=center;html=1;verticalAlign=top;pointerEvents=1;dashed=0;shape=mxgraph.pid2valves.valve;valveType=gate;defState=closed;strokeWidth=4;fillColor=none;fontSize=33;rotation=-15;strokeColor=#0000FF;rounded=1;labelBackgroundColor=none;sketch=0;" vertex="1" parent="1">
                    <mxGeometry x="1878.336855967078" y="1498.258293881081" width="41.81761316872428" height="20.908886759279792" as="geometry"/>
                </mxCell>
                <mxCell id="378" value="" style="verticalLabelPosition=bottom;align=center;html=1;verticalAlign=top;pointerEvents=1;dashed=0;shape=mxgraph.pid2valves.valve;valveType=gate;defState=closed;strokeWidth=4;fillColor=none;fontSize=33;rotation=-100;strokeColor=#0000FF;rounded=1;labelBackgroundColor=none;sketch=0;" vertex="1" parent="1">
                    <mxGeometry x="1644.1582222222223" y="2449.6126414283117" width="41.81761316872428" height="20.908886759279792" as="geometry"/>
                </mxCell>
                <mxCell id="379" value="" style="endArrow=none;html=1;strokeWidth=4;fontSize=33;labelBackgroundColor=none;sketch=0;" edge="1" parent="1">
                    <mxGeometry x="176.36000000000013" y="20" width="53.41393158259918" height="53.41402901033333" as="geometry">
                        <mxPoint x="1828.1557201646092" y="2767.427720169364" as="sourcePoint"/>
                        <mxPoint x="1909.7000658436214" y="2704.701059891526" as="targetPoint"/>
                        <Array as="points">
                            <mxPoint x="1888.7912592592593" y="2767.427720169364"/>
                        </Array>
                    </mxGeometry>
                </mxCell>
                <mxCell id="380" value="133" style="text;html=1;strokeColor=none;fillColor=none;align=center;verticalAlign=middle;whiteSpace=wrap;fontSize=33;fontStyle=1;rounded=1;labelBackgroundColor=none;strokeWidth=4;sketch=0;" vertex="1" parent="1">
                    <mxGeometry x="1803.0651522633743" y="2767.427720169364" width="83.63522633744856" height="41.817773518559584" as="geometry"/>
                </mxCell>
                <mxCell id="381" value="131" style="text;html=1;strokeColor=none;fillColor=none;align=center;verticalAlign=middle;whiteSpace=wrap;fontSize=33;fontStyle=1;rounded=1;labelBackgroundColor=none;strokeWidth=4;sketch=0;" vertex="1" parent="1">
                    <mxGeometry x="2005.8805761316871" y="2809.245493687924" width="83.63522633744856" height="41.817773518559584" as="geometry"/>
                </mxCell>
                <mxCell id="382" value="&lt;span style=&quot;font-size: 33px;&quot;&gt;132&lt;/span&gt;" style="text;html=1;strokeColor=none;fillColor=none;align=center;verticalAlign=middle;whiteSpace=wrap;fontSize=33;fontStyle=0;fontColor=#FF1212;rounded=1;labelBackgroundColor=none;strokeWidth=4;sketch=0;" vertex="1" parent="1">
                    <mxGeometry x="1903.4274238683124" y="2672.0413787735306" width="83.63522633744856" height="41.817773518559584" as="geometry"/>
                </mxCell>
                <mxCell id="383" value="" style="endArrow=none;html=1;strokeWidth=4;fontSize=33;labelBackgroundColor=none;sketch=0;" edge="1" parent="1">
                    <mxGeometry x="176.36000000000013" y="20" width="53.41393158259918" height="53.41402901033333" as="geometry">
                        <mxPoint x="1828.1557201646092" y="2591.793071391414" as="sourcePoint"/>
                        <mxPoint x="1974.5173662551438" y="2570.884184632134" as="targetPoint"/>
                        <Array as="points">
                            <mxPoint x="1911.7909465020575" y="2612.701958150694"/>
                        </Array>
                    </mxGeometry>
                </mxCell>
                <mxCell id="384" value="128" style="text;html=1;strokeColor=none;fillColor=none;align=center;verticalAlign=middle;whiteSpace=wrap;fontSize=33;fontStyle=1;rounded=1;labelBackgroundColor=none;strokeWidth=4;sketch=0;" vertex="1" parent="1">
                    <mxGeometry x="1897.154781893004" y="2604.338403446982" width="83.63522633744856" height="41.817773518559584" as="geometry"/>
                </mxCell>
                <mxCell id="385" value="125" style="text;html=1;strokeColor=none;fillColor=none;align=center;verticalAlign=middle;whiteSpace=wrap;fontSize=33;fontStyle=1;rounded=1;labelBackgroundColor=none;strokeWidth=4;sketch=0;" vertex="1" parent="1">
                    <mxGeometry x="1974.5173662551438" y="2547.8844091969268" width="83.63522633744856" height="41.817773518559584" as="geometry"/>
                </mxCell>
                <mxCell id="386" value="127" style="text;html=1;strokeColor=none;fillColor=none;align=center;verticalAlign=middle;whiteSpace=wrap;fontSize=33;fontStyle=1;rounded=1;labelBackgroundColor=none;strokeWidth=4;sketch=0;" vertex="1" parent="1">
                    <mxGeometry x="1669.2452674897115" y="2460.068862159808" width="83.63522633744856" height="41.817773518559584" as="geometry"/>
                </mxCell>
                <mxCell id="387" value="120" style="text;html=1;strokeColor=none;fillColor=none;align=center;verticalAlign=middle;whiteSpace=wrap;fontSize=33;fontStyle=1;rounded=1;labelBackgroundColor=none;strokeWidth=4;sketch=0;" vertex="1" parent="1">
                    <mxGeometry x="1742.4296131687242" y="2395.2495358541837" width="83.63522633744856" height="41.817773518559584" as="geometry"/>
                </mxCell>
                <mxCell id="388" value="" style="endArrow=none;html=1;strokeWidth=4;fontSize=33;labelBackgroundColor=none;sketch=0;" edge="1" parent="1">
                    <mxGeometry x="176.36000000000013" y="20" width="53.41393158259918" height="53.41402901033333" as="geometry">
                        <mxPoint x="2120.879012345679" y="2491.4304149468717" as="sourcePoint"/>
                        <mxPoint x="1702.7028806584362" y="2449.6126414283117" as="targetPoint"/>
                        <Array as="points">
                            <mxPoint x="2204.514238683128" y="2428.7037546690317"/>
                            <mxPoint x="2079.0613991769546" y="2177.7971135576745"/>
                            <mxPoint x="2058.1525925925926" y="2198.7060003169536"/>
                            <mxPoint x="1974.5173662551438" y="2240.5237738355136"/>
                            <mxPoint x="1786.3381069958846" y="2324.1593208726335"/>
                            <mxPoint x="1702.7028806584362" y="2386.8859811504717"/>
                            <mxPoint x="1681.7940740740742" y="2407.7948679097517"/>
                        </Array>
                    </mxGeometry>
                </mxCell>
                <mxCell id="389" value="" style="endArrow=none;html=1;strokeWidth=4;fontSize=33;labelBackgroundColor=none;sketch=0;" edge="1" parent="1">
                    <mxGeometry x="176.36000000000013" y="20" width="53.41393158259918" height="53.41402901033333" as="geometry">
                        <mxPoint x="1888.7912592592593" y="2386.8859811504717" as="sourcePoint"/>
                        <mxPoint x="1846.973646090535" y="2303.2504341133535" as="targetPoint"/>
                    </mxGeometry>
                </mxCell>
                <mxCell id="390" value="" style="endArrow=none;html=1;strokeWidth=4;fontSize=33;labelBackgroundColor=none;sketch=0;" edge="1" parent="1">
                    <mxGeometry x="176.36000000000013" y="20" width="53.41393158259918" height="53.41402901033333" as="geometry">
                        <mxPoint x="1861.6098106995883" y="2290.7051020577856" as="sourcePoint"/>
                        <mxPoint x="1840.7010041152262" y="2202.8877776688096" as="targetPoint"/>
                        <Array as="points">
                            <mxPoint x="1861.6098106995883" y="2240.5237738355136"/>
                        </Array>
                    </mxGeometry>
                </mxCell>
                <mxCell id="391" value="" style="endArrow=none;html=1;strokeWidth=4;fontSize=33;labelBackgroundColor=none;sketch=0;" edge="1" parent="1">
                    <mxGeometry x="176.36000000000013" y="20" width="53.41393158259918" height="53.41402901033333" as="geometry">
                        <mxPoint x="2099.9702057613167" y="2219.6148870762336" as="sourcePoint"/>
                        <mxPoint x="2183.6054320987655" y="2156.8882267983945" as="targetPoint"/>
                        <Array as="points">
                            <mxPoint x="2204.514238683128" y="2177.7971135576745"/>
                        </Array>
                    </mxGeometry>
                </mxCell>
                <mxCell id="392" value="118" style="text;html=1;strokeColor=none;fillColor=none;align=center;verticalAlign=middle;whiteSpace=wrap;fontSize=33;fontStyle=1;rounded=1;labelBackgroundColor=none;strokeWidth=4;sketch=0;" vertex="1" parent="1">
                    <mxGeometry x="1621.158534979424" y="2314.102146341419" width="83.63522633744856" height="41.817773518559584" as="geometry"/>
                </mxCell>
                <mxCell id="393" value="123" style="text;html=1;strokeColor=none;fillColor=none;align=center;verticalAlign=middle;whiteSpace=wrap;fontSize=33;fontStyle=1;rounded=1;labelBackgroundColor=none;strokeWidth=4;sketch=0;" vertex="1" parent="1">
                    <mxGeometry x="1782.1563456790118" y="2326.2502095485606" width="83.63522633744856" height="41.817773518559584" as="geometry"/>
                </mxCell>
                <mxCell id="394" value="122" style="text;html=1;strokeColor=none;fillColor=none;align=center;verticalAlign=middle;whiteSpace=wrap;fontSize=33;fontStyle=1;rounded=1;labelBackgroundColor=none;strokeWidth=4;sketch=0;" vertex="1" parent="1">
                    <mxGeometry x="1882.5186172839503" y="2353.4317623356246" width="83.63522633744856" height="41.817773518559584" as="geometry"/>
                </mxCell>
                <mxCell id="395" value="137" style="text;html=1;strokeColor=none;fillColor=none;align=center;verticalAlign=middle;whiteSpace=wrap;fontSize=33;fontStyle=1;rounded=1;labelBackgroundColor=none;strokeWidth=4;sketch=0;" vertex="1" parent="1">
                    <mxGeometry x="2185.6963127572017" y="2121.3431193076194" width="83.63522633744856" height="41.817773518559584" as="geometry"/>
                </mxCell>
                <mxCell id="396" value="119" style="text;html=1;strokeColor=none;fillColor=none;align=center;verticalAlign=middle;whiteSpace=wrap;fontSize=33;fontStyle=1;rounded=1;labelBackgroundColor=none;strokeWidth=4;sketch=0;" vertex="1" parent="1">
                    <mxGeometry x="1573.068279835391" y="2163.1608928261785" width="83.63522633744856" height="41.817773518559584" as="geometry"/>
                </mxCell>
                <mxCell id="397" value="117" style="text;html=1;strokeColor=none;fillColor=none;align=center;verticalAlign=middle;whiteSpace=wrap;fontSize=33;fontStyle=1;rounded=1;labelBackgroundColor=none;strokeWidth=4;sketch=0;" vertex="1" parent="1">
                    <mxGeometry x="1590.4434981069958" y="2202.8877776688096" width="83.63522633744856" height="41.817773518559584" as="geometry"/>
                </mxCell>
                <mxCell id="398" value="" style="endArrow=none;html=1;strokeWidth=4;fontSize=33;labelBackgroundColor=none;sketch=0;" edge="1" parent="1">
                    <mxGeometry x="176.36000000000013" y="20" width="53.41393158259918" height="53.41402901033333" as="geometry">
                        <mxPoint x="1556.3412345679012" y="2163.1608928261785" as="sourcePoint"/>
                        <mxPoint x="1765.4293004115225" y="2094.1615665205554" as="targetPoint"/>
                        <Array as="points">
                            <mxPoint x="1598.158847736625" y="2142.2520060668985"/>
                            <mxPoint x="1660.8852674897116" y="2135.9793400391145"/>
                        </Array>
                    </mxGeometry>
                </mxCell>
                <mxCell id="399" value="116" style="text;html=1;strokeColor=none;fillColor=none;align=center;verticalAlign=middle;whiteSpace=wrap;fontSize=33;fontStyle=1;rounded=1;labelBackgroundColor=none;strokeWidth=4;sketch=0;" vertex="1" parent="1">
                    <mxGeometry x="1757.0657777777778" y="2079.5253457890594" width="83.63522633744856" height="41.817773518559584" as="geometry"/>
                </mxCell>
                <mxCell id="400" value="" style="verticalLabelPosition=bottom;align=center;html=1;verticalAlign=top;pointerEvents=1;dashed=0;shape=mxgraph.pid2valves.valve;valveType=gate;defState=closed;strokeWidth=4;fillColor=none;fontSize=33;rotation=-120;strokeColor=#0000FF;rounded=1;labelBackgroundColor=none;sketch=0;" vertex="1" parent="1">
                    <mxGeometry x="2102.061086419753" y="2200.7968889928816" width="41.81761316872428" height="20.908886759279792" as="geometry"/>
                </mxCell>
                <mxCell id="401" value="&lt;span style=&quot;font-size: 33px;&quot;&gt;121&lt;/span&gt;" style="text;html=1;strokeColor=none;fillColor=none;align=center;verticalAlign=middle;whiteSpace=wrap;fontSize=33;fontColor=#FF1212;fontStyle=0;rounded=1;labelBackgroundColor=none;strokeWidth=4;sketch=0;" vertex="1" parent="1">
                    <mxGeometry x="1828.1557201646092" y="2169.4335588539625" width="83.63522633744856" height="41.817773518559584" as="geometry"/>
                </mxCell>
                <mxCell id="402" value="115" style="text;html=1;strokeColor=none;fillColor=none;align=center;verticalAlign=middle;whiteSpace=wrap;fontSize=33;fontStyle=0;fontColor=#FF1212;rounded=1;labelBackgroundColor=none;strokeWidth=4;sketch=0;" vertex="1" parent="1">
                    <mxGeometry x="1521.4444363786006" y="2050.2529043260674" width="83.63522633744856" height="41.817773518559584" as="geometry"/>
                </mxCell>
                <mxCell id="403" value="113" style="text;html=1;strokeColor=none;fillColor=none;align=center;verticalAlign=middle;whiteSpace=wrap;fontSize=33;fontStyle=1;rounded=1;labelBackgroundColor=none;strokeWidth=4;sketch=0;" vertex="1" parent="1">
                    <mxGeometry x="1476.8877695473248" y="1941.5266931778124" width="83.63522633744856" height="41.817773518559584" as="geometry"/>
                </mxCell>
                <mxCell id="404" value="114" style="text;html=1;strokeColor=none;fillColor=none;align=center;verticalAlign=middle;whiteSpace=wrap;fontSize=33;fontStyle=1;rounded=1;labelBackgroundColor=none;strokeWidth=4;sketch=0;" vertex="1" parent="1">
                    <mxGeometry x="1437.8092100411523" y="1870.4364781962613" width="83.63522633744856" height="41.817773518559584" as="geometry"/>
                </mxCell>
                <mxCell id="405" value="" style="verticalLabelPosition=bottom;align=center;html=1;verticalAlign=top;pointerEvents=1;dashed=0;shape=mxgraph.pid2valves.valve;valveType=gate;defState=closed;strokeWidth=4;fillColor=none;fontSize=33;rotation=353;strokeColor=#0000FF;rounded=1;labelBackgroundColor=none;sketch=0;" vertex="1" parent="1">
                    <mxGeometry x="1156.9830288065841" y="2817.609048391636" width="41.81761316872428" height="20.908886759279792" as="geometry"/>
                </mxCell>
                <mxCell id="406" value="" style="verticalLabelPosition=bottom;align=center;html=1;verticalAlign=top;pointerEvents=1;dashed=0;shape=mxgraph.pid2valves.valve;valveType=gate;defState=closed;strokeWidth=4;fillColor=none;fontSize=33;rotation=251;strokeColor=#0000FF;rounded=1;labelBackgroundColor=none;sketch=0;" vertex="1" parent="1">
                    <mxGeometry x="1144.4377448559671" y="3012.061695252938" width="41.81761316872428" height="20.908886759279792" as="geometry"/>
                </mxCell>
                <mxCell id="407" value="" style="verticalLabelPosition=bottom;align=center;html=1;verticalAlign=top;pointerEvents=1;dashed=0;shape=mxgraph.pid2valves.valve;valveType=gate;defState=closed;strokeWidth=4;fillColor=none;fontSize=33;rotation=-30;strokeColor=#0000FF;rounded=1;labelBackgroundColor=none;sketch=0;" vertex="1" parent="1">
                    <mxGeometry x="1190.4371193415636" y="1832.8004820295573" width="41.81761316872428" height="20.908886759279792" as="geometry"/>
                </mxCell>
                <mxCell id="408" value="" style="verticalLabelPosition=bottom;align=center;html=1;verticalAlign=top;pointerEvents=1;dashed=0;shape=mxgraph.pid2valves.valve;valveType=gate;defState=closed;strokeWidth=4;fillColor=none;fontSize=33;rotation=-15;strokeColor=#0000FF;rounded=1;labelBackgroundColor=none;sketch=0;" vertex="1" parent="1">
                    <mxGeometry x="1575.1591604938267" y="1707.3471614738792" width="41.81761316872428" height="20.908886759279792" as="geometry"/>
                </mxCell>
                <mxCell id="409" value="" style="verticalLabelPosition=bottom;align=center;html=1;verticalAlign=top;pointerEvents=1;dashed=0;shape=mxgraph.pid2valves.valve;valveType=gate;defState=closed;strokeWidth=4;fillColor=none;fontSize=33;rotation=-15;strokeColor=#0000FF;rounded=1;labelBackgroundColor=none;sketch=0;" vertex="1" parent="1">
                    <mxGeometry x="728.3524938271603" y="2064.8891250575634" width="41.81761316872428" height="20.908886759279792" as="geometry"/>
                </mxCell>
                <mxCell id="410" value="" style="endArrow=none;html=1;strokeWidth=4;fontSize=33;labelBackgroundColor=none;sketch=0;" edge="1" parent="1">
                    <mxGeometry x="176.36000000000013" y="20" width="53.41393158259918" height="53.41402901033333" as="geometry">
                        <mxPoint x="2039.3346666666666" y="2867.790376613908" as="sourcePoint"/>
                        <mxPoint x="1389.070781893004" y="1801.4371518906382" as="targetPoint"/>
                        <Array as="points">
                            <mxPoint x="1869.9733333333334" y="2658.70150902111"/>
                            <mxPoint x="1807.2469135802467" y="2554.1570752247108"/>
                            <mxPoint x="1746.6113744855966" y="2407.7948679097517"/>
                            <mxPoint x="1702.7028806584362" y="2449.6126414283117"/>
                            <mxPoint x="1642.0673415637857" y="2470.5215281875917"/>
                            <mxPoint x="1642.0673415637857" y="2365.9770943911917"/>
                            <mxPoint x="1621.158534979424" y="2282.3415473540736"/>
                            <mxPoint x="1558.4321152263374" y="2156.8882267983945"/>
                        </Array>
                    </mxGeometry>
                </mxCell>
                <mxCell id="411" value="" style="endArrow=none;html=1;strokeWidth=4;fontSize=33;labelBackgroundColor=none;sketch=0;" edge="1" parent="1">
                    <mxGeometry x="176.36000000000013" y="20" width="53.41393158259918" height="53.41402901033333" as="geometry">
                        <mxPoint x="929.0770370370369" y="2643.9657221621883" as="sourcePoint"/>
                        <mxPoint x="1389.070781893004" y="1799.3462632147102" as="targetPoint"/>
                        <Array as="points">
                            <mxPoint x="908.1682304526748" y="2514.4301903820797"/>
                            <mxPoint x="845.4418106995886" y="2347.1590963078406"/>
                            <mxPoint x="719.9889711934156" y="1987.5262440482284"/>
                            <mxPoint x="949.985843621399" y="1908.0724743629653"/>
                            <mxPoint x="1138.1651028806582" y="1841.1640367332693"/>
                            <mxPoint x="1242.709135802469" y="1799.3462632147102"/>
                        </Array>
                    </mxGeometry>
                </mxCell>
                <mxCell id="412" value="" style="endArrow=none;html=1;strokeWidth=4;fontSize=33;labelBackgroundColor=none;sketch=0;" edge="1" parent="1">
                    <mxGeometry x="176.36000000000013" y="20" width="53.41393158259918" height="53.41402901033333" as="geometry">
                        <mxPoint x="1943.1541563786009" y="2978.3087780558144" as="sourcePoint"/>
                        <mxPoint x="1200.891522633745" y="1816.0733726221342" as="targetPoint"/>
                        <Array as="points">
                            <mxPoint x="1828.1557201646092" y="3097.788130965985"/>
                            <mxPoint x="1529.1597860082302" y="2805.063716336068"/>
                            <mxPoint x="1466.4333662551435" y="2679.61039578039"/>
                            <mxPoint x="1401.616065843621" y="2512.3393017061508"/>
                            <mxPoint x="1380.7072592592594" y="2407.7948679097517"/>
                            <mxPoint x="1326.3443621399174" y="2177.7971135576745"/>
                            <mxPoint x="1255.254419753086" y="1947.7993592055964"/>
                        </Array>
                    </mxGeometry>
                </mxCell>
                <mxCell id="413" value="" style="endArrow=none;html=1;strokeWidth=4;fontSize=33;labelBackgroundColor=none;sketch=0;" edge="1" parent="1">
                    <mxGeometry x="176.36000000000013" y="20" width="53.41393158259918" height="53.41402901033333" as="geometry">
                        <mxPoint x="1660.8852674897116" y="3124.9696837530482" as="sourcePoint"/>
                        <mxPoint x="1786.3381069958846" y="3055.970357447425" as="targetPoint"/>
                        <Array as="points">
                            <mxPoint x="1723.6116872427983" y="3097.788130965985"/>
                        </Array>
                    </mxGeometry>
                </mxCell>
                <mxCell id="414" value="" style="endArrow=none;html=1;strokeWidth=4;fontSize=33;labelBackgroundColor=none;sketch=0;" edge="1" parent="1">
                    <mxGeometry x="176.36000000000013" y="20" width="53.41393158259918" height="53.41402901033333" as="geometry">
                        <mxPoint x="1391.1616625514403" y="2476.7941942153757" as="sourcePoint"/>
                        <mxPoint x="1600.2497283950615" y="2554.1570752247108" as="targetPoint"/>
                        <Array as="points">
                            <mxPoint x="1552.1594732510284" y="2476.7941942153757"/>
                            <mxPoint x="1552.1594732510284" y="2554.1570752247108"/>
                        </Array>
                    </mxGeometry>
                </mxCell>
                <mxCell id="415" value="" style="endArrow=none;html=1;strokeWidth=4;fontSize=33;labelBackgroundColor=none;sketch=0;" edge="1" parent="1">
                    <mxGeometry x="176.36000000000013" y="20" width="53.41393158259918" height="53.41402901033333" as="geometry">
                        <mxPoint x="1320.071720164609" y="2161.0700041502505" as="sourcePoint"/>
                        <mxPoint x="1455.9789629629627" y="2198.7060003169536" as="targetPoint"/>
                    </mxGeometry>
                </mxCell>
                <mxCell id="416" value="" style="endArrow=none;html=1;strokeWidth=4;fontSize=33;labelBackgroundColor=none;sketch=0;" edge="1" parent="1">
                    <mxGeometry x="176.36000000000013" y="20" width="53.41393158259918" height="53.41402901033333" as="geometry">
                        <mxPoint x="1299.1629135802468" y="2081.6162344649874" as="sourcePoint"/>
                        <mxPoint x="1200.891522633745" y="2169.4335588539625" as="targetPoint"/>
                        <Array as="points">
                            <mxPoint x="1179.9827160493824" y="2073.2526797612754"/>
                        </Array>
                    </mxGeometry>
                </mxCell>
                <mxCell id="417" value="" style="verticalLabelPosition=bottom;align=center;html=1;verticalAlign=top;pointerEvents=1;dashed=0;shape=mxgraph.pid2valves.valve;valveType=gate;defState=closed;strokeWidth=4;fillColor=none;fontSize=33;rotation=-110;strokeColor=#0000FF;rounded=1;labelBackgroundColor=none;sketch=0;" vertex="1" parent="1">
                    <mxGeometry x="1161.1647901234564" y="1809.8007065943502" width="41.81761316872428" height="20.908886759279792" as="geometry"/>
                </mxCell>
                <mxCell id="418" value="" style="endArrow=none;html=1;strokeWidth=4;fontSize=33;labelBackgroundColor=none;sketch=0;" edge="1" parent="1">
                    <mxGeometry x="176.36000000000013" y="20" width="53.41393158259918" height="53.41402901033333" as="geometry">
                        <mxPoint x="1592" y="1843" as="sourcePoint"/>
                        <mxPoint x="1591.886205761317" y="1701.0744954460952" as="targetPoint"/>
                        <Array as="points">
                            <mxPoint x="1562.6138765432097" y="1784.7100424832142"/>
                            <mxPoint x="1625.340296296296" y="1763.8011557239342"/>
                            <mxPoint x="1598.158847736625" y="1721.9833822053752"/>
                        </Array>
                    </mxGeometry>
                </mxCell>
                <mxCell id="419" value="145" style="text;html=1;strokeColor=none;fillColor=none;align=center;verticalAlign=middle;whiteSpace=wrap;fontStyle=1;fontSize=33;rounded=1;labelBackgroundColor=none;strokeWidth=4;sketch=0;" vertex="1" parent="1">
                    <mxGeometry x="1598.16" y="1809.8" width="61.84" height="41.82" as="geometry"/>
                </mxCell>
                <mxCell id="420" value="112" style="text;html=1;strokeColor=none;fillColor=none;align=center;verticalAlign=middle;whiteSpace=wrap;fontSize=33;fontStyle=1;rounded=1;labelBackgroundColor=none;strokeWidth=4;sketch=0;" vertex="1" parent="1">
                    <mxGeometry x="1238.53" y="1749.16" width="51.93" height="31.36" as="geometry"/>
                </mxCell>
                <mxCell id="421" value="111" style="text;html=1;strokeColor=none;fillColor=none;align=center;verticalAlign=middle;whiteSpace=wrap;fontSize=33;fontStyle=1;rounded=1;labelBackgroundColor=none;strokeWidth=4;sketch=0;" vertex="1" parent="1">
                    <mxGeometry x="1467.081539259259" y="1665.5293879553192" width="83.63522633744856" height="41.817773518559584" as="geometry"/>
                </mxCell>
                <mxCell id="422" value="146" style="text;html=1;strokeColor=none;fillColor=none;align=center;verticalAlign=middle;whiteSpace=wrap;fontSize=33;fontStyle=1;rounded=1;labelBackgroundColor=none;strokeWidth=4;sketch=0;" vertex="1" parent="1">
                    <mxGeometry x="1644.1582222222223" y="1636.2569464923272" width="83.63522633744856" height="41.817773518559584" as="geometry"/>
                </mxCell>
                <mxCell id="423" value="148" style="text;html=1;strokeColor=none;fillColor=none;align=center;verticalAlign=middle;whiteSpace=wrap;fontSize=33;fontStyle=1;rounded=1;labelBackgroundColor=none;strokeWidth=4;sketch=0;" vertex="1" parent="1">
                    <mxGeometry x="1773.7928230452671" y="1640.4387238441832" width="83.63522633744856" height="41.817773518559584" as="geometry"/>
                </mxCell>
                <mxCell id="424" value="110" style="text;html=1;strokeColor=none;fillColor=none;align=center;verticalAlign=middle;whiteSpace=wrap;fontSize=33;fontStyle=1;rounded=1;labelBackgroundColor=none;strokeWidth=4;sketch=0;" vertex="1" parent="1">
                    <mxGeometry x="1223.8912098765431" y="1859.9820348166213" width="83.63522633744856" height="41.817773518559584" as="geometry"/>
                </mxCell>
                <mxCell id="425" value="69" style="text;html=1;strokeColor=none;fillColor=none;align=center;verticalAlign=middle;whiteSpace=wrap;fontSize=33;fontStyle=1;rounded=1;labelBackgroundColor=none;strokeWidth=4;sketch=0;" vertex="1" parent="1">
                    <mxGeometry x="1052.4389958847732" y="1862.0729234925493" width="83.63522633744856" height="41.817773518559584" as="geometry"/>
                </mxCell>
                <mxCell id="426" value="71" style="text;html=1;strokeColor=none;fillColor=none;align=center;verticalAlign=middle;whiteSpace=wrap;fontSize=33;fontStyle=1;rounded=1;labelBackgroundColor=none;strokeWidth=4;sketch=0;" vertex="1" parent="1">
                    <mxGeometry x="1113.0745349794233" y="2052.3437930019954" width="83.63522633744856" height="41.817773518559584" as="geometry"/>
                </mxCell>
                <mxCell id="427" value="108" style="text;html=1;strokeColor=none;fillColor=none;align=center;verticalAlign=middle;whiteSpace=wrap;fontSize=33;fontStyle=1;rounded=1;labelBackgroundColor=none;strokeWidth=4;sketch=0;" vertex="1" parent="1">
                    <mxGeometry x="1265.7088230452673" y="1941.5266931778124" width="83.63522633744856" height="41.817773518559584" as="geometry"/>
                </mxCell>
                <mxCell id="428" value="72" style="text;html=1;strokeColor=none;fillColor=none;align=center;verticalAlign=middle;whiteSpace=wrap;fontSize=33;fontColor=none;fontStyle=1;rounded=1;labelBackgroundColor=none;strokeWidth=4;sketch=0;" vertex="1" parent="1">
                    <mxGeometry x="1163.255670781893" y="2173.6153362058185" width="83.63522633744856" height="41.817773518559584" as="geometry"/>
                </mxCell>
                <mxCell id="429" value="105" style="text;html=1;strokeColor=none;fillColor=none;align=center;verticalAlign=middle;whiteSpace=wrap;fontSize=33;fontColor=none;fontStyle=1;rounded=1;labelBackgroundColor=none;strokeWidth=4;sketch=0;" vertex="1" parent="1">
                    <mxGeometry x="1338.8896460905348" y="2190.3424456132416" width="83.63522633744856" height="41.817773518559584" as="geometry"/>
                </mxCell>
                <mxCell id="430" value="107" style="text;html=1;strokeColor=none;fillColor=none;align=center;verticalAlign=middle;whiteSpace=wrap;fontSize=33;fontColor=none;fontStyle=1;rounded=1;labelBackgroundColor=none;strokeWidth=4;sketch=0;" vertex="1" parent="1">
                    <mxGeometry x="1451.7972016460903" y="2169.4335588539625" width="83.63522633744856" height="41.817773518559584" as="geometry"/>
                </mxCell>
                <mxCell id="431" value="74" style="text;html=1;strokeColor=none;fillColor=none;align=center;verticalAlign=middle;whiteSpace=wrap;fontSize=33;fontColor=none;fontStyle=1;rounded=1;labelBackgroundColor=none;strokeWidth=4;sketch=0;" vertex="1" parent="1">
                    <mxGeometry x="1338.8896460905348" y="2261.4326605947936" width="83.63522633744856" height="41.817773518559584" as="geometry"/>
                </mxCell>
                <mxCell id="432" value="76" style="text;html=1;strokeColor=none;fillColor=none;align=center;verticalAlign=middle;whiteSpace=wrap;fontSize=33;fontColor=none;fontStyle=1;rounded=1;labelBackgroundColor=none;strokeWidth=4;sketch=0;" vertex="1" parent="1">
                    <mxGeometry x="1353.5258106995884" y="2311.6139888170655" width="83.63522633744856" height="41.817773518559584" as="geometry"/>
                </mxCell>
                <mxCell id="433" value="78" style="text;html=1;strokeColor=none;fillColor=none;align=center;verticalAlign=middle;whiteSpace=wrap;fontSize=33;fontColor=none;fontStyle=1;rounded=1;labelBackgroundColor=none;strokeWidth=4;sketch=0;" vertex="1" parent="1">
                    <mxGeometry x="1368.1619753086416" y="2382.7042037986157" width="83.63522633744856" height="41.817773518559584" as="geometry"/>
                </mxCell>
                <mxCell id="434" value="104" style="text;html=1;strokeColor=none;fillColor=none;align=center;verticalAlign=middle;whiteSpace=wrap;fontSize=33;fontColor=none;fontStyle=1;rounded=1;labelBackgroundColor=none;strokeWidth=4;sketch=0;" vertex="1" parent="1">
                    <mxGeometry x="1506.808271769547" y="2432.8855320208877" width="83.63522633744856" height="41.817773518559584" as="geometry"/>
                </mxCell>
                <mxCell id="435" value="103" style="text;html=1;strokeColor=none;fillColor=none;align=center;verticalAlign=middle;whiteSpace=wrap;fontSize=33;fontColor=none;fontStyle=1;rounded=1;labelBackgroundColor=none;strokeWidth=4;sketch=0;" vertex="1" parent="1">
                    <mxGeometry x="1590.4434981069958" y="2533.2481884654308" width="83.63522633744856" height="41.817773518559584" as="geometry"/>
                </mxCell>
                <mxCell id="436" value="" style="endArrow=classic;html=1;strokeWidth=4;fontSize=33;fontColor=none;exitX=0.35;exitY=1.003;exitDx=0;exitDy=0;exitPerimeter=0;strokeColor=#666600;labelBackgroundColor=none;sketch=0;" edge="1" parent="1" source="665">
                    <mxGeometry x="176.36000000000013" y="20" width="53.41393158259918" height="53.41402901033333" as="geometry">
                        <mxPoint x="1488.3876131687239" y="2428.7037546690317" as="sourcePoint"/>
                        <mxPoint x="1478.9786502057614" y="2512.3393017061508" as="targetPoint"/>
                    </mxGeometry>
                </mxCell>
                <mxCell id="437" value="134" style="text;html=1;strokeColor=none;fillColor=none;align=center;verticalAlign=middle;whiteSpace=wrap;fontSize=33;fontColor=none;fontStyle=1;rounded=1;labelBackgroundColor=none;strokeWidth=4;sketch=0;" vertex="1" parent="1">
                    <mxGeometry x="753.4430617283952" y="1916.4360290666773" width="83.63522633744856" height="41.817773518559584" as="geometry"/>
                </mxCell>
                <mxCell id="438" value="4" style="text;html=1;strokeColor=none;fillColor=none;align=center;verticalAlign=middle;whiteSpace=wrap;fontSize=33;fontColor=none;fontStyle=1;rounded=1;labelBackgroundColor=none;strokeWidth=4;sketch=0;" vertex="1" parent="1">
                    <mxGeometry x="757.6248230452675" y="1983.3444666963724" width="83.63522633744856" height="41.817773518559584" as="geometry"/>
                </mxCell>
                <mxCell id="439" value="" style="endArrow=none;html=1;strokeWidth=4;fontSize=33;fontColor=none;labelBackgroundColor=none;sketch=0;" edge="1" parent="1">
                    <mxGeometry x="176.36000000000013" y="20" width="53.41393158259918" height="53.41402901033333" as="geometry">
                        <mxPoint x="740.8977777777777" y="2052.3437930019954" as="sourcePoint"/>
                        <mxPoint x="1583.5226831275722" y="3417.045201897333" as="targetPoint"/>
                        <Array as="points">
                            <mxPoint x="924.8952757201646" y="1993.7989100760124"/>
                            <mxPoint x="1029.439308641975" y="2265.6144379466496"/>
                            <mxPoint x="1113.0745349794233" y="2474.7033055394477"/>
                            <mxPoint x="1133.9833415637859" y="2495.6121922987277"/>
                            <mxPoint x="1159.0739094650207" y="2495.6121922987277"/>
                            <mxPoint x="1200.891522633745" y="2616.88373550255"/>
                            <mxPoint x="1159.0739094650207" y="2616.88373550255"/>
                            <mxPoint x="1179.9827160493824" y="2867.790376613908"/>
                            <mxPoint x="1159.0739094650207" y="2888.699263373188"/>
                            <mxPoint x="1179.9827160493824" y="2930.517036891746"/>
                            <mxPoint x="1179.9827160493824" y="3014.152583928866"/>
                            <mxPoint x="1221.800329218107" y="3097.788130965985"/>
                            <mxPoint x="1347.25316872428" y="3432.3303191144623"/>
                            <mxPoint x="1451.7972016460903" y="3417.6940983829663"/>
                        </Array>
                    </mxGeometry>
                </mxCell>
                <mxCell id="440" value="68" style="text;html=1;strokeColor=none;fillColor=none;align=center;verticalAlign=middle;whiteSpace=wrap;fontSize=33;fontColor=none;fontStyle=1;rounded=1;labelBackgroundColor=none;strokeWidth=4;sketch=0;" vertex="1" parent="1">
                    <mxGeometry x="847.5326913580247" y="1958.2538025852364" width="83.63522633744856" height="41.817773518559584" as="geometry"/>
                </mxCell>
                <mxCell id="441" value="73" style="text;html=1;strokeColor=none;fillColor=none;align=center;verticalAlign=middle;whiteSpace=wrap;fontSize=33;fontColor=none;fontStyle=1;rounded=1;labelBackgroundColor=none;strokeWidth=4;sketch=0;" vertex="1" parent="1">
                    <mxGeometry x="931.1679176954731" y="2010.5260194834354" width="83.63522633744856" height="41.817773518559584" as="geometry"/>
                </mxCell>
                <mxCell id="442" value="67" style="text;html=1;strokeColor=none;fillColor=none;align=center;verticalAlign=middle;whiteSpace=wrap;fontSize=33;fontColor=none;fontStyle=1;rounded=1;labelBackgroundColor=none;strokeWidth=4;sketch=0;" vertex="1" parent="1">
                    <mxGeometry x="968.8037695473249" y="2092.0706778446274" width="83.63522633744856" height="41.817773518559584" as="geometry"/>
                </mxCell>
                <mxCell id="443" value="66" style="text;html=1;strokeColor=none;fillColor=none;align=center;verticalAlign=middle;whiteSpace=wrap;fontSize=33;fontColor=none;fontStyle=1;rounded=1;labelBackgroundColor=none;strokeWidth=4;sketch=0;" vertex="1" parent="1">
                    <mxGeometry x="1004.3487407407406" y="2190.3424456132416" width="83.63522633744856" height="41.817773518559584" as="geometry"/>
                </mxCell>
                <mxCell id="444" value="75" style="text;html=1;strokeColor=none;fillColor=none;align=center;verticalAlign=middle;whiteSpace=wrap;fontSize=33;fontColor=none;fontStyle=1;rounded=1;labelBackgroundColor=none;strokeWidth=4;sketch=0;" vertex="1" parent="1">
                    <mxGeometry x="1027.3484279835393" y="2261.4326605947936" width="83.63522633744856" height="41.817773518559584" as="geometry"/>
                </mxCell>
                <mxCell id="445" value="64" style="text;html=1;strokeColor=none;fillColor=none;align=center;verticalAlign=middle;whiteSpace=wrap;fontSize=33;fontColor=none;fontStyle=1;rounded=1;labelBackgroundColor=none;strokeWidth=4;sketch=0;" vertex="1" parent="1">
                    <mxGeometry x="1067.0751604938268" y="2340.8864302800566" width="83.63522633744856" height="41.817773518559584" as="geometry"/>
                </mxCell>
                <mxCell id="446" value="77" style="text;html=1;strokeColor=none;fillColor=none;align=center;verticalAlign=middle;whiteSpace=wrap;fontSize=33;fontColor=none;fontStyle=1;rounded=1;labelBackgroundColor=none;strokeWidth=4;sketch=0;" vertex="1" parent="1">
                    <mxGeometry x="1052.4389958847732" y="2470.5215281875917" width="83.63522633744856" height="41.817773518559584" as="geometry"/>
                </mxCell>
                <mxCell id="447" value="61" style="text;html=1;strokeColor=none;fillColor=none;align=center;verticalAlign=middle;whiteSpace=wrap;fontSize=33;fontColor=none;fontStyle=1;rounded=1;labelBackgroundColor=none;strokeWidth=4;sketch=0;" vertex="1" parent="1">
                    <mxGeometry x="1152.8012674897118" y="2451.7035301042397" width="83.63522633744856" height="41.817773518559584" as="geometry"/>
                </mxCell>
                <mxCell id="448" value="252" style="text;html=1;strokeColor=none;fillColor=none;align=center;verticalAlign=middle;whiteSpace=wrap;fontSize=33;fontColor=none;fontStyle=1;rounded=1;labelBackgroundColor=none;strokeWidth=4;sketch=0;" vertex="1" parent="1">
                    <mxGeometry x="1182.073596707819" y="2533.2481884654308" width="83.63522633744856" height="41.817773518559584" as="geometry"/>
                </mxCell>
                <mxCell id="449" value="59" style="text;html=1;strokeColor=none;fillColor=none;align=center;verticalAlign=middle;whiteSpace=wrap;fontSize=33;fontColor=none;fontStyle=1;rounded=1;labelBackgroundColor=none;strokeWidth=4;sketch=0;" vertex="1" parent="1">
                    <mxGeometry x="899.8047078189302" y="2518.6119677339348" width="83.63522633744856" height="41.817773518559584" as="geometry"/>
                </mxCell>
                <mxCell id="450" value="63" style="text;html=1;strokeColor=none;fillColor=none;align=center;verticalAlign=middle;whiteSpace=wrap;fontSize=33;fontColor=none;fontStyle=1;rounded=1;labelBackgroundColor=none;strokeWidth=4;sketch=0;" vertex="1" parent="1">
                    <mxGeometry x="922.8043950617284" y="2604.338403446982" width="83.63522633744856" height="41.817773518559584" as="geometry"/>
                </mxCell>
                <mxCell id="451" value="60" style="text;html=1;strokeColor=none;fillColor=none;align=center;verticalAlign=middle;whiteSpace=wrap;fontSize=33;fontColor=none;fontStyle=1;rounded=1;labelBackgroundColor=none;strokeWidth=4;sketch=0;" vertex="1" parent="1">
                    <mxGeometry x="1148.6195061728395" y="2630.2236052549706" width="83.63522633744856" height="41.817773518559584" as="geometry"/>
                </mxCell>
                <mxCell id="452" value="58" style="text;html=1;strokeColor=none;fillColor=none;align=center;verticalAlign=middle;whiteSpace=wrap;fontSize=33;fontColor=none;fontStyle=1;rounded=1;labelBackgroundColor=none;strokeWidth=4;sketch=0;" vertex="1" parent="1">
                    <mxGeometry x="983.4399341563785" y="2767.427720169364" width="83.63522633744856" height="41.817773518559584" as="geometry"/>
                </mxCell>
                <mxCell id="453" value="57" style="text;html=1;strokeColor=none;fillColor=none;align=center;verticalAlign=middle;whiteSpace=wrap;fontSize=33;fontColor=none;fontStyle=1;rounded=1;labelBackgroundColor=none;strokeWidth=4;sketch=0;" vertex="1" parent="1">
                    <mxGeometry x="1087.9839670781894" y="2742.337056058229" width="83.63522633744856" height="41.817773518559584" as="geometry"/>
                </mxCell>
                <mxCell id="454" value="" style="endArrow=none;html=1;strokeWidth=4;fontSize=33;fontColor=none;labelBackgroundColor=none;sketch=0;" edge="1" parent="1">
                    <mxGeometry x="176.36000000000013" y="20" width="53.41393158259918" height="53.41402901033333" as="geometry">
                        <mxPoint x="1058.7116378600822" y="2796.700161632356" as="sourcePoint"/>
                        <mxPoint x="1175.80095473251" y="2784.154829576788" as="targetPoint"/>
                    </mxGeometry>
                </mxCell>
                <mxCell id="455" value="" style="endArrow=none;html=1;strokeWidth=4;fontSize=33;fontColor=none;labelBackgroundColor=none;sketch=0;" edge="1" parent="1">
                    <mxGeometry x="176.36000000000013" y="20" width="53.41393158259918" height="53.41402901033333" as="geometry">
                        <mxPoint x="1660.8852674897116" y="3227.42322887352" as="sourcePoint"/>
                        <mxPoint x="1167.4374320987654" y="2725.609946650805" as="targetPoint"/>
                        <Array as="points">
                            <mxPoint x="1619.0676543209875" y="3265.0592250402233"/>
                            <mxPoint x="1556.3412345679012" y="3285.9681117995024"/>
                            <mxPoint x="1514.5236213991766" y="3223.241451521664"/>
                            <mxPoint x="1535.4324279835391" y="3202.332564762384"/>
                            <mxPoint x="1389.070781893004" y="3081.061021558561"/>
                            <mxPoint x="1363.9802139917692" y="2913.789927484323"/>
                            <mxPoint x="1259.4361810699584" y="2809.245493687924"/>
                        </Array>
                    </mxGeometry>
                </mxCell>
                <mxCell id="456" value="" style="endArrow=none;html=1;strokeWidth=4;fontSize=33;fontColor=none;labelBackgroundColor=none;sketch=0;" edge="1" parent="1">
                    <mxGeometry x="176.36000000000013" y="20" width="53.41393158259918" height="53.41402901033333" as="geometry">
                        <mxPoint x="1232.2547325102878" y="3442.7847624941014" as="sourcePoint"/>
                        <mxPoint x="1179.9827160493824" y="3018.334361280722" as="targetPoint"/>
                        <Array as="points">
                            <mxPoint x="1179.9827160493824" y="3432.3303191144623"/>
                            <mxPoint x="1138.1651028806582" y="3432.3303191144623"/>
                            <mxPoint x="1117.2562962962966" y="3285.9681117995024"/>
                            <mxPoint x="1054.5298765432099" y="3076.879244206705"/>
                            <mxPoint x="1054.5298765432099" y="3064.333912151138"/>
                        </Array>
                    </mxGeometry>
                </mxCell>
                <mxCell id="457" value="247" style="text;html=1;strokeColor=none;fillColor=none;align=center;verticalAlign=middle;whiteSpace=wrap;fontSize=33;fontColor=none;fontStyle=1;rounded=1;labelBackgroundColor=none;strokeWidth=4;sketch=0;" vertex="1" parent="1">
                    <mxGeometry x="1202.9824032921806" y="2725.609946650805" width="83.63522633744856" height="41.817773518559584" as="geometry"/>
                </mxCell>
                <mxCell id="458" value="84" style="text;html=1;strokeColor=none;fillColor=none;align=center;verticalAlign=middle;whiteSpace=wrap;fontSize=33;fontColor=none;fontStyle=1;rounded=1;labelBackgroundColor=none;strokeWidth=4;sketch=0;" vertex="1" parent="1">
                    <mxGeometry x="1286.6176296296294" y="2809.245493687924" width="83.63522633744856" height="41.817773518559584" as="geometry"/>
                </mxCell>
                <mxCell id="459" value="56" style="text;html=1;strokeColor=none;fillColor=none;align=center;verticalAlign=middle;whiteSpace=wrap;fontSize=33;fontColor=none;fontStyle=1;rounded=1;labelBackgroundColor=none;strokeWidth=4;sketch=0;" vertex="1" parent="1">
                    <mxGeometry x="1359.7999999999997" y="2873.6699999999996" width="46.93" height="41.82" as="geometry"/>
                </mxCell>
                <mxCell id="460" value="" style="verticalLabelPosition=bottom;align=center;html=1;verticalAlign=top;pointerEvents=1;dashed=0;shape=mxgraph.pid2valves.valve;valveType=gate;defState=closed;strokeWidth=4;fillColor=none;fontSize=33;rotation=0;strokeColor=#0000FF;rounded=1;labelBackgroundColor=none;sketch=0;" vertex="1" parent="1">
                    <mxGeometry x="1859.518930041152" y="1418.804524195818" width="41.81761316872428" height="20.908886759279792" as="geometry"/>
                </mxCell>
                <mxCell id="461" value="" style="verticalLabelPosition=bottom;align=center;html=1;verticalAlign=top;pointerEvents=1;dashed=0;shape=mxgraph.pid2valves.valve;valveType=gate;defState=closed;strokeWidth=4;fillColor=none;fontSize=33;rotation=276;strokeColor=#0000FF;rounded=1;labelBackgroundColor=none;sketch=0;" vertex="1" parent="1">
                    <mxGeometry x="1125.6198189300412" y="1119.8074435381168" width="41.81761316872428" height="20.908886759279792" as="geometry"/>
                </mxCell>
                <mxCell id="462" value="" style="verticalLabelPosition=bottom;align=center;html=1;verticalAlign=top;pointerEvents=1;dashed=0;shape=mxgraph.pid2valves.valve;valveType=gate;defState=closed;strokeWidth=4;fillColor=none;fontSize=33;rotation=316;strokeColor=#0000FF;rounded=1;labelBackgroundColor=none;sketch=0;" vertex="1" parent="1">
                    <mxGeometry x="1225.9820905349789" y="2784.154829576788" width="41.81761316872428" height="20.908886759279792" as="geometry"/>
                </mxCell>
                <mxCell id="463" value="55" style="text;html=1;strokeColor=none;fillColor=none;align=center;verticalAlign=middle;whiteSpace=wrap;fontSize=33;fontColor=none;fontStyle=1;rounded=1;labelBackgroundColor=none;strokeWidth=4;sketch=0;" vertex="1" parent="1">
                    <mxGeometry x="1106.8018930041153" y="2917.971704836178" width="83.63522633744856" height="41.817773518559584" as="geometry"/>
                </mxCell>
                <mxCell id="464" value="51" style="text;html=1;strokeColor=none;fillColor=none;align=center;verticalAlign=middle;whiteSpace=wrap;fontSize=33;fontColor=none;fontStyle=1;rounded=1;labelBackgroundColor=none;strokeWidth=4;sketch=0;" vertex="1" parent="1">
                    <mxGeometry x="1161.1647901234564" y="2876.15393131762" width="83.63522633744856" height="41.817773518559584" as="geometry"/>
                </mxCell>
                <mxCell id="465" value="85" style="text;html=1;strokeColor=none;fillColor=none;align=center;verticalAlign=middle;whiteSpace=wrap;fontSize=33;fontColor=none;fontStyle=1;rounded=1;labelBackgroundColor=none;strokeWidth=4;sketch=0;" vertex="1" parent="1">
                    <mxGeometry x="1368.1619753086416" y="2974.425699086234" width="83.63522633744856" height="41.817773518559584" as="geometry"/>
                </mxCell>
                <mxCell id="466" value="87" style="text;html=1;strokeColor=none;fillColor=none;align=center;verticalAlign=middle;whiteSpace=wrap;fontSize=33;fontStyle=0;fontColor=#FF1212;rounded=1;labelBackgroundColor=none;strokeWidth=4;sketch=0;" vertex="1" parent="1">
                    <mxGeometry x="1402.9124118518516" y="3058.061246123354" width="83.63522633744856" height="41.817773518559584" as="geometry"/>
                </mxCell>
                <mxCell id="467" value="52" style="text;html=1;strokeColor=none;fillColor=none;align=center;verticalAlign=middle;whiteSpace=wrap;fontSize=33;fontColor=none;fontStyle=1;rounded=1;labelBackgroundColor=none;strokeWidth=4;sketch=0;" vertex="1" parent="1">
                    <mxGeometry x="1121.4380576131684" y="3043.425025391858" width="83.63522633744856" height="41.817773518559584" as="geometry"/>
                </mxCell>
                <mxCell id="468" value="43" style="text;html=1;strokeColor=none;fillColor=none;align=center;verticalAlign=middle;whiteSpace=wrap;fontSize=33;fontColor=none;fontStyle=1;rounded=1;labelBackgroundColor=none;strokeWidth=4;sketch=0;" vertex="1" parent="1">
                    <mxGeometry x="1039.8937119341563" y="3058.061246123354" width="83.63522633744856" height="41.817773518559584" as="geometry"/>
                </mxCell>
                <mxCell id="469" value="&lt;b style=&quot;font-size: 33px;&quot;&gt;50&lt;/b&gt;" style="text;html=1;strokeColor=none;fillColor=none;align=center;verticalAlign=middle;whiteSpace=wrap;fontSize=33;fontColor=none;rounded=1;labelBackgroundColor=none;strokeWidth=4;sketch=0;" vertex="1" parent="1">
                    <mxGeometry x="1221.800329218107" y="3099.879019641913" width="83.63522633744856" height="41.817773518559584" as="geometry"/>
                </mxCell>
                <mxCell id="470" value="262" style="text;html=1;strokeColor=none;fillColor=none;align=center;verticalAlign=middle;whiteSpace=wrap;fontSize=33;fontColor=none;fontStyle=1;rounded=1;labelBackgroundColor=none;strokeWidth=4;sketch=0;" vertex="1" parent="1">
                    <mxGeometry x="1255.254419753086" y="3152.151236540112" width="83.63522633744856" height="41.817773518559584" as="geometry"/>
                </mxCell>
                <mxCell id="471" value="47" style="text;html=1;strokeColor=none;fillColor=none;align=center;verticalAlign=middle;whiteSpace=wrap;fontSize=33;fontColor=none;fontStyle=1;rounded=1;labelBackgroundColor=none;strokeWidth=4;sketch=0;" vertex="1" parent="1">
                    <mxGeometry x="1196.7097613168726" y="3039.243248040002" width="83.63522633744856" height="41.817773518559584" as="geometry"/>
                </mxCell>
                <mxCell id="472" value="42" style="text;html=1;strokeColor=none;fillColor=none;align=center;verticalAlign=middle;whiteSpace=wrap;fontSize=33;fontColor=none;fontStyle=1;rounded=1;labelBackgroundColor=none;strokeWidth=4;sketch=0;" vertex="1" parent="1">
                    <mxGeometry x="1079.6204444444443" y="3173.060123299392" width="83.63522633744856" height="41.817773518559584" as="geometry"/>
                </mxCell>
                <mxCell id="473" value="41" style="text;html=1;strokeColor=none;fillColor=none;align=center;verticalAlign=middle;whiteSpace=wrap;fontSize=33;fontStyle=0;fontColor=#FF1212;rounded=1;labelBackgroundColor=none;strokeWidth=4;sketch=0;" vertex="1" parent="1">
                    <mxGeometry x="1104.7110123456787" y="3246.9103113331685" width="83.63522633744856" height="41.817773518559584" as="geometry"/>
                </mxCell>
                <mxCell id="474" value="46" style="text;html=1;strokeColor=none;fillColor=none;align=center;verticalAlign=middle;whiteSpace=wrap;fontSize=33;fontColor=none;fontStyle=1;rounded=1;labelBackgroundColor=none;strokeWidth=4;sketch=0;" vertex="1" parent="1">
                    <mxGeometry x="1113.0745349794233" y="3334.0585513458464" width="83.63522633744856" height="41.817773518559584" as="geometry"/>
                </mxCell>
                <mxCell id="475" value="49" style="text;html=1;strokeColor=none;fillColor=none;align=center;verticalAlign=middle;whiteSpace=wrap;fontSize=33;fontColor=none;fontStyle=1;rounded=1;labelBackgroundColor=none;strokeWidth=4;sketch=0;" vertex="1" parent="1">
                    <mxGeometry x="1248.981777777778" y="3346.6038834014144" width="83.63522633744856" height="41.817773518559584" as="geometry"/>
                </mxCell>
                <mxCell id="476" value="44" style="text;html=1;strokeColor=none;fillColor=none;align=center;verticalAlign=middle;whiteSpace=wrap;fontSize=33;fontColor=none;fontStyle=1;rounded=1;labelBackgroundColor=none;strokeWidth=4;sketch=0;" vertex="1" parent="1">
                    <mxGeometry x="1190.4371193415636" y="3396.7852116236863" width="83.63522633744856" height="41.817773518559584" as="geometry"/>
                </mxCell>
                <mxCell id="477" value="45" style="text;html=1;strokeColor=none;fillColor=none;align=center;verticalAlign=middle;whiteSpace=wrap;fontSize=33;fontColor=none;fontStyle=1;rounded=1;labelBackgroundColor=none;strokeWidth=4;sketch=0;" vertex="1" parent="1">
                    <mxGeometry x="1265.7088230452673" y="3396.7852116236863" width="83.63522633744856" height="41.817773518559584" as="geometry"/>
                </mxCell>
                <mxCell id="478" value="162" style="text;html=1;strokeColor=none;fillColor=none;align=center;verticalAlign=middle;whiteSpace=wrap;fontSize=33;fontColor=none;fontStyle=1;rounded=1;labelBackgroundColor=none;strokeWidth=4;sketch=0;" vertex="1" parent="1">
                    <mxGeometry x="1357.7075720164607" y="3375.8763248644063" width="83.63522633744856" height="41.817773518559584" as="geometry"/>
                </mxCell>
                <mxCell id="479" value="65" style="text;html=1;strokeColor=none;fillColor=none;align=center;verticalAlign=middle;whiteSpace=wrap;fontSize=33;fontColor=none;fontStyle=1;rounded=1;labelBackgroundColor=none;strokeWidth=4;sketch=0;" vertex="1" parent="1">
                    <mxGeometry x="1437.8092100411523" y="3417.6940983829663" width="83.63522633744856" height="41.817773518559584" as="geometry"/>
                </mxCell>
                <mxCell id="480" value="93" style="text;html=1;strokeColor=none;fillColor=none;align=center;verticalAlign=middle;whiteSpace=wrap;fontSize=33;fontColor=none;fontStyle=1;rounded=1;labelBackgroundColor=none;strokeWidth=4;sketch=0;" vertex="1" parent="1">
                    <mxGeometry x="1550.7167655967078" y="3417.6940983829663" width="83.63522633744856" height="41.817773518559584" as="geometry"/>
                </mxCell>
                <mxCell id="481" value="90" style="text;html=1;strokeColor=none;fillColor=none;align=center;verticalAlign=middle;whiteSpace=wrap;fontSize=33;fontColor=none;fontStyle=1;rounded=1;labelBackgroundColor=none;strokeWidth=4;sketch=0;" vertex="1" parent="1">
                    <mxGeometry x="1476.8877695473248" y="3257.9920213155865" width="83.63522633744856" height="41.817773518559584" as="geometry"/>
                </mxCell>
                <mxCell id="482" value="36" style="text;html=1;strokeColor=none;fillColor=none;align=center;verticalAlign=middle;whiteSpace=wrap;fontSize=33;fontColor=none;fontStyle=1;rounded=1;labelBackgroundColor=none;strokeWidth=4;sketch=0;" vertex="1" parent="1">
                    <mxGeometry x="1451.7972016460903" y="3214.877896817952" width="83.63522633744856" height="41.817773518559584" as="geometry"/>
                </mxCell>
                <mxCell id="483" value="92" style="text;html=1;strokeColor=none;fillColor=none;align=center;verticalAlign=middle;whiteSpace=wrap;fontSize=33;fontColor=none;fontStyle=1;rounded=1;labelBackgroundColor=none;strokeWidth=4;sketch=0;" vertex="1" parent="1">
                    <mxGeometry x="1598.158847736625" y="3255.9011326396594" width="83.63522633744856" height="41.817773518559584" as="geometry"/>
                </mxCell>
                <mxCell id="484" value="62" style="text;html=1;strokeColor=none;fillColor=none;align=center;verticalAlign=middle;whiteSpace=wrap;fontSize=33;fontColor=none;fontStyle=1;rounded=1;labelBackgroundColor=none;strokeWidth=4;sketch=0;" vertex="1" parent="1">
                    <mxGeometry x="1652.521744855967" y="3211.9924704451714" width="83.63522633744856" height="41.817773518559584" as="geometry"/>
                </mxCell>
                <mxCell id="485" value="86" style="text;html=1;strokeColor=none;fillColor=none;align=center;verticalAlign=middle;whiteSpace=wrap;fontSize=33;fontColor=none;fontStyle=1;rounded=1;labelBackgroundColor=none;strokeWidth=4;sketch=0;" vertex="1" parent="1">
                    <mxGeometry x="1463.5479509465022" y="3113.218889394334" width="83.63522633744856" height="41.817773518559584" as="geometry"/>
                </mxCell>
                <mxCell id="486" value="79" style="text;html=1;strokeColor=none;fillColor=none;align=center;verticalAlign=middle;whiteSpace=wrap;fontSize=33;fontColor=none;fontStyle=1;rounded=1;labelBackgroundColor=none;strokeWidth=4;sketch=0;" vertex="1" parent="1">
                    <mxGeometry x="1265.7088230452673" y="2451.7035301042397" width="83.63522633744856" height="41.817773518559584" as="geometry"/>
                </mxCell>
                <mxCell id="487" value="" style="endArrow=none;html=1;strokeWidth=4;fontSize=33;fontColor=none;labelBackgroundColor=none;sketch=0;" edge="1" parent="1">
                    <mxGeometry x="176.36000000000013" y="20" width="53.41393158259918" height="53.41402901033333" as="geometry">
                        <mxPoint x="1163.255670781893" y="2501.8848583265117" as="sourcePoint"/>
                        <mxPoint x="1299.1629135802468" y="2495.6121922987277" as="targetPoint"/>
                    </mxGeometry>
                </mxCell>
                <mxCell id="488" value="70" style="text;html=1;strokeColor=none;fillColor=none;align=center;verticalAlign=middle;whiteSpace=wrap;fontSize=33;fontColor=none;fontStyle=1;rounded=1;labelBackgroundColor=none;strokeWidth=4;sketch=0;" vertex="1" parent="1">
                    <mxGeometry x="983.4399341563785" y="1885.0726989277573" width="83.63522633744856" height="41.817773518559584" as="geometry"/>
                </mxCell>
                <mxCell id="489" value="253" style="text;html=1;strokeColor=none;fillColor=none;align=center;verticalAlign=middle;whiteSpace=wrap;fontSize=33;fontColor=none;fontStyle=1;rounded=1;labelBackgroundColor=none;strokeWidth=4;sketch=0;" vertex="1" parent="1">
                    <mxGeometry x="864.2597366255145" y="1870.4364781962613" width="83.63522633744856" height="41.817773518559584" as="geometry"/>
                </mxCell>
                <mxCell id="490" value="&lt;font style=&quot;font-size: 33px;&quot;&gt;80&lt;/font&gt;" style="text;html=1;strokeColor=none;fillColor=none;align=center;verticalAlign=middle;whiteSpace=wrap;fontSize=33;fontColor=none;fontStyle=1;strokeWidth=4;rounded=1;labelBackgroundColor=none;sketch=0;" vertex="1" parent="1">
                    <mxGeometry x="1343.0714074074076" y="2508.1575243542957" width="83.63522633744856" height="41.817773518559584" as="geometry"/>
                </mxCell>
                <mxCell id="491" value="&lt;font style=&quot;font-size: 33px;&quot;&gt;81&lt;/font&gt;" style="text;html=1;strokeColor=none;fillColor=none;align=center;verticalAlign=middle;whiteSpace=wrap;fontSize=33;fontColor=none;fontStyle=1;rounded=1;labelBackgroundColor=none;strokeWidth=4;sketch=0;" vertex="1" parent="1">
                    <mxGeometry x="1359.798452674897" y="2562.520629928422" width="83.63522633744856" height="41.817773518559584" as="geometry"/>
                </mxCell>
                <mxCell id="492" value="102" style="text;html=1;strokeColor=none;fillColor=none;align=center;verticalAlign=middle;whiteSpace=wrap;fontSize=33;fontStyle=0;fontColor=#FF1212;rounded=1;labelBackgroundColor=none;strokeWidth=4;sketch=0;" vertex="1" parent="1">
                    <mxGeometry x="1437.8092100411523" y="2604.338403446982" width="83.63522633744856" height="41.817773518559584" as="geometry"/>
                </mxCell>
                <mxCell id="493" value="&lt;b style=&quot;font-size: 33px;&quot;&gt;82&lt;/b&gt;" style="text;html=1;strokeColor=none;fillColor=none;align=center;verticalAlign=middle;whiteSpace=wrap;fontSize=33;fontColor=none;rounded=1;labelBackgroundColor=none;strokeWidth=4;sketch=0;" vertex="1" parent="1">
                    <mxGeometry x="1402.9124118518512" y="2683.792173132246" width="83.63522633744856" height="41.817773518559584" as="geometry"/>
                </mxCell>
                <mxCell id="494" value="101" style="text;html=1;strokeColor=none;fillColor=none;align=center;verticalAlign=middle;whiteSpace=wrap;fontSize=33;fontColor=none;fontStyle=1;rounded=1;labelBackgroundColor=none;strokeWidth=4;sketch=0;" vertex="1" parent="1">
                    <mxGeometry x="1496.3538684773662" y="2725.609946650805" width="83.63522633744856" height="41.817773518559584" as="geometry"/>
                </mxCell>
                <mxCell id="495" value="83" style="text;html=1;strokeColor=none;fillColor=none;align=center;verticalAlign=middle;whiteSpace=wrap;fontSize=33;fontColor=none;fontStyle=1;rounded=1;labelBackgroundColor=none;strokeWidth=4;sketch=0;" vertex="1" parent="1">
                    <mxGeometry x="1467.081539259259" y="2796.700161632356" width="83.63522633744856" height="41.817773518559584" as="geometry"/>
                </mxCell>
                <mxCell id="496" value="100" style="text;html=1;strokeColor=none;fillColor=none;align=center;verticalAlign=middle;whiteSpace=wrap;fontSize=33;fontStyle=0;fontColor=#FF1212;rounded=1;labelBackgroundColor=none;strokeWidth=4;sketch=0;" vertex="1" parent="1">
                    <mxGeometry x="1575.1591604938267" y="2809.245493687924" width="83.63522633744856" height="41.817773518559584" as="geometry"/>
                </mxCell>
                <mxCell id="497" value="99" style="text;html=1;strokeColor=none;fillColor=none;align=center;verticalAlign=middle;whiteSpace=wrap;fontSize=33;fontColor=none;fontStyle=1;rounded=1;labelBackgroundColor=none;strokeWidth=4;sketch=0;" vertex="1" parent="1">
                    <mxGeometry x="1602.3406090534977" y="2865.69948793798" width="83.63522633744856" height="41.817773518559584" as="geometry"/>
                </mxCell>
                <mxCell id="498" value="88" style="text;html=1;strokeColor=none;fillColor=none;align=center;verticalAlign=middle;whiteSpace=wrap;fontSize=33;fontColor=none;fontStyle=1;rounded=1;labelBackgroundColor=none;strokeWidth=4;sketch=0;" vertex="1" parent="1">
                    <mxGeometry x="1644.1582222222223" y="2907.517261456539" width="83.63522633744856" height="41.817773518559584" as="geometry"/>
                </mxCell>
                <mxCell id="499" value="98" style="text;html=1;strokeColor=none;fillColor=none;align=center;verticalAlign=middle;whiteSpace=wrap;fontSize=33;fontColor=none;fontStyle=1;rounded=1;labelBackgroundColor=none;strokeWidth=4;sketch=0;" vertex="1" parent="1">
                    <mxGeometry x="1616.9767736625513" y="2959.789478354738" width="83.63522633744856" height="41.817773518559584" as="geometry"/>
                </mxCell>
                <mxCell id="500" value="89" style="text;html=1;strokeColor=none;fillColor=none;align=center;verticalAlign=middle;whiteSpace=wrap;fontSize=33;fontColor=none;fontStyle=1;rounded=1;labelBackgroundColor=none;strokeWidth=4;sketch=0;" vertex="1" parent="1">
                    <mxGeometry x="1679.7031934156375" y="3016.243472604794" width="83.63522633744856" height="41.817773518559584" as="geometry"/>
                </mxCell>
                <mxCell id="501" value="95" style="text;html=1;strokeColor=none;fillColor=none;align=center;verticalAlign=middle;whiteSpace=wrap;fontSize=33;fontColor=none;fontStyle=1;rounded=1;labelBackgroundColor=none;strokeWidth=4;sketch=0;" vertex="1" parent="1">
                    <mxGeometry x="1731.975209876543" y="3083.5491790829155" width="83.63522633744856" height="41.817773518559584" as="geometry"/>
                </mxCell>
                <mxCell id="502" value="94" style="text;html=1;strokeColor=none;fillColor=none;align=center;verticalAlign=middle;whiteSpace=wrap;fontSize=33;fontColor=none;fontStyle=1;rounded=1;labelBackgroundColor=none;strokeWidth=4;sketch=0;" vertex="1" parent="1">
                    <mxGeometry x="1673.430551440329" y="3113.218889394334" width="83.63522633744856" height="41.817773518559584" as="geometry"/>
                </mxCell>
                <mxCell id="503" value="91" style="text;html=1;strokeColor=none;fillColor=none;align=center;verticalAlign=middle;whiteSpace=wrap;fontSize=33;fontColor=none;fontStyle=1;rounded=1;labelBackgroundColor=none;strokeWidth=4;sketch=0;" vertex="1" parent="1">
                    <mxGeometry x="1605.079662716049" y="3127.0605724289762" width="83.63522633744856" height="41.817773518559584" as="geometry"/>
                </mxCell>
                <mxCell id="504" value="97" style="text;html=1;strokeColor=none;fillColor=none;align=center;verticalAlign=middle;whiteSpace=wrap;fontSize=33;fontColor=none;fontStyle=1;rounded=1;labelBackgroundColor=none;strokeWidth=4;sketch=0;" vertex="1" parent="1">
                    <mxGeometry x="1878.336855967078" y="3032.970582012218" width="83.63522633744856" height="41.817773518559584" as="geometry"/>
                </mxCell>
                <mxCell id="505" value="96" style="text;html=1;strokeColor=none;fillColor=none;align=center;verticalAlign=middle;whiteSpace=wrap;fontSize=33;fontColor=none;fontStyle=1;rounded=1;labelBackgroundColor=none;strokeWidth=4;sketch=0;" vertex="1" parent="1">
                    <mxGeometry x="1924.3362304526745" y="2953.516812326954" width="83.63522633744856" height="41.817773518559584" as="geometry"/>
                </mxCell>
                <mxCell id="506" value="" style="endArrow=classic;html=1;strokeWidth=4;fontSize=33;fontColor=none;exitX=0;exitY=0.25;exitDx=0;exitDy=0;strokeColor=#666600;labelBackgroundColor=none;sketch=0;" edge="1" parent="1" source="670">
                    <mxGeometry x="176.36000000000013" y="20" width="53.41393158259918" height="53.41402901033333" as="geometry">
                        <mxPoint x="1888.7912592592593" y="3208.605230790168" as="sourcePoint"/>
                        <mxPoint x="1483.1604115226337" y="2930.517036891746" as="targetPoint"/>
                    </mxGeometry>
                </mxCell>
                <mxCell id="507" value="" style="endArrow=none;html=1;strokeWidth=4;fontSize=33;fontColor=none;labelBackgroundColor=none;sketch=0;" edge="1" parent="1">
                    <mxGeometry x="176.36000000000013" y="20" width="53.41393158259918" height="53.41402901033333" as="geometry">
                        <mxPoint x="1642.0673415637857" y="63.90866219448799" as="sourcePoint"/>
                        <mxPoint x="1242.709135802469" y="1801.4371518906382" as="targetPoint"/>
                        <Array as="points">
                            <mxPoint x="1765.4293004115225" y="65.99955087041599"/>
                            <mxPoint x="1807.2469135802467" y="86.90843762969507"/>
                            <mxPoint x="1890.882139917695" y="212.36175818537413"/>
                            <mxPoint x="1953.6085596707821" y="316.9061919817732"/>
                            <mxPoint x="1974.5173662551438" y="379.63285225961226"/>
                            <mxPoint x="1702.7028806584362" y="630.5394933709704"/>
                            <mxPoint x="1619.0676543209875" y="630.5394933709704"/>
                            <mxPoint x="1472.7060082304524" y="609.6306066116904"/>
                            <mxPoint x="1347.25316872428" y="567.8128330931304"/>
                            <mxPoint x="1326.3443621399174" y="567.8128330931304"/>
                            <mxPoint x="1305.4355555555558" y="567.8128330931304"/>
                            <mxPoint x="1284.5267489711932" y="588.7217198524104"/>
                            <mxPoint x="1242.709135802469" y="630.5394933709704"/>
                            <mxPoint x="1198.8006419753083" y="693.2661536488094"/>
                            <mxPoint x="1179.9827160493824" y="755.9928139266485"/>
                            <mxPoint x="1182.073596707819" y="818.7194742044885"/>
                            <mxPoint x="1177.8918353909467" y="965.0816815194466"/>
                            <mxPoint x="1159.0739094650207" y="1174.1705491122448"/>
                            <mxPoint x="1159.0739094650207" y="1404.168303464322"/>
                            <mxPoint x="1156.9830288065841" y="1529.621624020001"/>
                            <mxPoint x="1179.9827160493824" y="1655.0749445756792"/>
                        </Array>
                    </mxGeometry>
                </mxCell>
                <mxCell id="508" value="" style="endArrow=none;html=1;strokeWidth=4;fontSize=33;fontColor=none;labelBackgroundColor=none;sketch=0;" edge="1" parent="1">
                    <mxGeometry x="176.36000000000013" y="20" width="53.41393158259918" height="53.41402901033333" as="geometry">
                        <mxPoint x="1955.6994403292179" y="1619.529837084904" as="sourcePoint"/>
                        <mxPoint x="1840.7010041152262" y="626.3577160191144" as="targetPoint"/>
                        <Array as="points">
                            <mxPoint x="1920.1544691358022" y="1571.4393975385601"/>
                            <mxPoint x="1890.882139917695" y="1487.803850501441"/>
                            <mxPoint x="1869.9733333333334" y="1383.259416705042"/>
                            <mxPoint x="1890.882139917695" y="1278.714982908643"/>
                            <mxPoint x="1920.1544691358022" y="1174.1705491122448"/>
                            <mxPoint x="1857.428049382716" y="985.9905682787266"/>
                            <mxPoint x="1857.428049382716" y="860.5372477230476"/>
                        </Array>
                    </mxGeometry>
                </mxCell>
                <mxCell id="509" value="" style="endArrow=none;html=1;strokeWidth=4;fontSize=33;fontColor=none;labelBackgroundColor=none;sketch=0;" edge="1" parent="1">
                    <mxGeometry x="176.36000000000013" y="20" width="53.41393158259918" height="53.41402901033333" as="geometry">
                        <mxPoint x="1694.3393580246911" y="628.4486046950424" as="sourcePoint"/>
                        <mxPoint x="2141.7878189300413" y="590.8126085283384" as="targetPoint"/>
                        <Array as="points">
                            <mxPoint x="1869.9733333333334" y="632.6303820468984"/>
                            <mxPoint x="2141.7878189300413" y="611.7214952876184"/>
                        </Array>
                    </mxGeometry>
                </mxCell>
                <mxCell id="510" value="" style="verticalLabelPosition=bottom;align=center;html=1;verticalAlign=top;pointerEvents=1;dashed=0;shape=mxgraph.pid2valves.valve;valveType=gate;defState=closed;strokeWidth=4;fillColor=none;fontSize=33;rotation=-90;strokeColor=#0000FF;rounded=1;labelBackgroundColor=none;sketch=0;" vertex="1" parent="1">
                    <mxGeometry x="1186.2553580246913" y="1119.8074435381168" width="41.81761316872428" height="20.908886759279792" as="geometry"/>
                </mxCell>
                <mxCell id="511" value="" style="verticalLabelPosition=bottom;align=center;html=1;verticalAlign=top;pointerEvents=1;dashed=0;shape=mxgraph.pid2valves.valve;valveType=gate;defState=closed;strokeWidth=4;fillColor=none;fontSize=33;rotation=339;strokeColor=#0000FF;rounded=1;labelBackgroundColor=none;sketch=0;" vertex="1" parent="1">
                    <mxGeometry x="1165.3465514403288" y="1659.2567219275352" width="41.81761316872428" height="20.908886759279792" as="geometry"/>
                </mxCell>
                <mxCell id="512" value="" style="verticalLabelPosition=bottom;align=center;html=1;verticalAlign=top;pointerEvents=1;dashed=0;shape=mxgraph.pid2valves.valve;valveType=gate;defState=closed;strokeWidth=4;fillColor=none;fontSize=33;rotation=15;strokeColor=#0000FF;rounded=1;labelBackgroundColor=none;sketch=0;" vertex="1" parent="1">
                    <mxGeometry x="1169.5283127572015" y="707.9023743803045" width="41.81761316872428" height="20.908886759279792" as="geometry"/>
                </mxCell>
                <mxCell id="513" value="" style="verticalLabelPosition=bottom;align=center;html=1;verticalAlign=top;pointerEvents=1;dashed=0;shape=mxgraph.pid2valves.valve;valveType=gate;defState=closed;strokeWidth=4;fillColor=none;fontSize=33;rotation=317;strokeColor=#0000FF;rounded=1;labelBackgroundColor=none;sketch=0;" vertex="1" parent="1">
                    <mxGeometry x="1238.5273744855967" y="632.6303820468984" width="41.81761316872428" height="20.908886759279792" as="geometry"/>
                </mxCell>
                <mxCell id="514" value="" style="verticalLabelPosition=bottom;align=center;html=1;verticalAlign=top;pointerEvents=1;dashed=0;shape=mxgraph.pid2valves.valve;valveType=gate;defState=closed;strokeWidth=4;fillColor=none;fontSize=33;rotation=254;strokeColor=#0000FF;rounded=1;labelBackgroundColor=none;sketch=0;" vertex="1" parent="1">
                    <mxGeometry x="1888.7912592592593" y="1284.987648936427" width="41.81761316872428" height="20.908886759279792" as="geometry"/>
                </mxCell>
                <mxCell id="515" value="" style="endArrow=none;html=1;strokeWidth=4;fontSize=33;fontColor=none;labelBackgroundColor=none;sketch=0;" edge="1" parent="1">
                    <mxGeometry x="176.36000000000013" y="20" width="53.41393158259918" height="53.41402901033333" as="geometry">
                        <mxPoint x="1888.7912592592593" y="1299.623869667923" as="sourcePoint"/>
                        <mxPoint x="2150.151341563786" y="1236.8972093900838" as="targetPoint"/>
                        <Array as="points">
                            <mxPoint x="2037.2437860082305" y="1257.8060961493638"/>
                        </Array>
                    </mxGeometry>
                </mxCell>
                <mxCell id="516" value="150" style="text;html=1;strokeColor=none;fillColor=none;align=center;verticalAlign=middle;whiteSpace=wrap;fontSize=33;fontColor=none;fontStyle=1;rounded=1;labelBackgroundColor=none;strokeWidth=4;sketch=0;" vertex="1" parent="1">
                    <mxGeometry x="2091.606683127572" y="1717.8016048535192" width="83.63522633744856" height="41.817773518559584" as="geometry"/>
                </mxCell>
                <mxCell id="517" value="149" style="text;html=1;strokeColor=none;fillColor=none;align=center;verticalAlign=middle;whiteSpace=wrap;fontSize=33;fontStyle=0;fontColor=#FF1212;rounded=1;labelBackgroundColor=none;strokeWidth=4;sketch=0;" vertex="1" parent="1">
                    <mxGeometry x="1932.6997530864196" y="1665.5293879553192" width="83.63522633744856" height="41.817773518559584" as="geometry"/>
                </mxCell>
                <mxCell id="518" value="151" style="text;html=1;strokeColor=none;fillColor=none;align=center;verticalAlign=middle;whiteSpace=wrap;fontSize=33;fontStyle=0;fontColor=#FF1212;rounded=1;labelBackgroundColor=none;strokeWidth=4;sketch=0;" vertex="1" parent="1">
                    <mxGeometry x="2221.2412839506173" y="1779.231914152283" width="83.63522633744856" height="41.817773518559584" as="geometry"/>
                </mxCell>
                <mxCell id="519" value="152" style="text;html=1;strokeColor=none;fillColor=none;align=center;verticalAlign=middle;whiteSpace=wrap;fontSize=33;fontStyle=0;fontColor=#FF1212;rounded=1;labelBackgroundColor=none;strokeWidth=4;sketch=0;" vertex="1" parent="1">
                    <mxGeometry x="2269.3315390946505" y="1968.7082459648764" width="83.63522633744856" height="41.817773518559584" as="geometry"/>
                </mxCell>
                <mxCell id="520" value="244" style="text;html=1;strokeColor=none;fillColor=none;align=center;verticalAlign=middle;whiteSpace=wrap;fontSize=33;fontColor=none;fontStyle=1;rounded=1;labelBackgroundColor=none;strokeWidth=4;sketch=0;" vertex="1" parent="1">
                    <mxGeometry x="2323.694436213992" y="1903.8906970111093" width="83.63522633744856" height="41.817773518559584" as="geometry"/>
                </mxCell>
                <mxCell id="521" value="143" style="text;html=1;strokeColor=none;fillColor=none;align=center;verticalAlign=middle;whiteSpace=wrap;fontSize=33;fontColor=none;fontStyle=1;rounded=1;labelBackgroundColor=none;strokeWidth=4;sketch=0;" vertex="1" parent="1">
                    <mxGeometry x="2288.149465020576" y="1836.9822593814133" width="83.63522633744856" height="41.817773518559584" as="geometry"/>
                </mxCell>
                <mxCell id="522" value="" style="endArrow=none;html=1;strokeWidth=4;fontSize=33;fontColor=none;labelBackgroundColor=none;sketch=0;" edge="1" parent="1">
                    <mxGeometry x="176.36000000000013" y="20" width="53.41393158259918" height="53.41402901033333" as="geometry">
                        <mxPoint x="1161.1647901234564" y="1132.3527755936848" as="sourcePoint"/>
                        <mxPoint x="920.7135144032918" y="781.0834780377845" as="targetPoint"/>
                        <Array as="points">
                            <mxPoint x="1054.5298765432099" y="1111.4438888344048"/>
                        </Array>
                    </mxGeometry>
                </mxCell>
                <mxCell id="523" value="" style="endArrow=none;html=1;strokeWidth=4;fontSize=33;fontColor=none;labelBackgroundColor=none;sketch=0;" edge="1" parent="1">
                    <mxGeometry x="176.36000000000013" y="20" width="53.41393158259918" height="53.41402901033333" as="geometry">
                        <mxPoint x="793.1697942386832" y="1205.5338792511639" as="sourcePoint"/>
                        <mxPoint x="1075.4386831275715" y="1111.4438888344048" as="targetPoint"/>
                        <Array as="points">
                            <mxPoint x="929.0770370370369" y="1174.1705491122448"/>
                        </Array>
                    </mxGeometry>
                </mxCell>
                <mxCell id="524" value="" style="endArrow=none;html=1;strokeWidth=4;fontSize=33;fontColor=none;exitX=1;exitY=0.5;exitDx=0;exitDy=0;exitPerimeter=0;labelBackgroundColor=none;sketch=0;" edge="1" parent="1" source="374">
                    <mxGeometry x="176.36000000000013" y="20" width="53.41393158259918" height="53.41402901033333" as="geometry">
                        <mxPoint x="1075.4386831275715" y="1320.532756427203" as="sourcePoint"/>
                        <mxPoint x="791.078913580247" y="1201.3521018993079" as="targetPoint"/>
                        <Array as="points">
                            <mxPoint x="824.5330041152265" y="1425.077190223602"/>
                        </Array>
                    </mxGeometry>
                </mxCell>
                <mxCell id="525" value="" style="endArrow=none;html=1;strokeWidth=4;fontSize=33;fontColor=none;labelBackgroundColor=none;sketch=0;" edge="1" parent="1">
                    <mxGeometry x="176.36000000000013" y="20" width="53.41393158259918" height="53.41402901033333" as="geometry">
                        <mxPoint x="952.0767242798356" y="1843.2549254091973" as="sourcePoint"/>
                        <mxPoint x="824.5330041152265" y="1412.531858168034" as="targetPoint"/>
                        <Array as="points">
                            <mxPoint x="952.0767242798356" y="1797.2553745387822"/>
                            <mxPoint x="1054.5298765432099" y="1713.6198275016632"/>
                            <mxPoint x="1054.5298765432099" y="1671.8020539831032"/>
                            <mxPoint x="1054.5298765432099" y="1629.9842804645432"/>
                            <mxPoint x="1033.6210699588473" y="1588.166506945984"/>
                            <mxPoint x="1012.7122633744857" y="1504.530959908865"/>
                            <mxPoint x="970.8946502057615" y="1425.077190223602"/>
                        </Array>
                    </mxGeometry>
                </mxCell>
                <mxCell id="526" value="159" style="text;html=1;strokeColor=none;fillColor=none;align=center;verticalAlign=middle;whiteSpace=wrap;fontSize=33;fontColor=none;fontStyle=1;rounded=1;labelBackgroundColor=none;strokeWidth=4;sketch=0;" vertex="1" parent="1">
                    <mxGeometry x="947.8949629629628" y="1818.1642612980622" width="83.63522633744856" height="41.817773518559584" as="geometry"/>
                </mxCell>
                <mxCell id="527" value="155" style="text;html=1;strokeColor=none;fillColor=none;align=center;verticalAlign=middle;whiteSpace=wrap;fontSize=33;fontColor=none;fontStyle=1;rounded=1;labelBackgroundColor=none;strokeWidth=4;sketch=0;" vertex="1" parent="1">
                    <mxGeometry x="1004.3487407407406" y="1749.1649349924392" width="83.63522633744856" height="41.817773518559584" as="geometry"/>
                </mxCell>
                <mxCell id="528" value="161" style="text;html=1;strokeColor=none;fillColor=none;align=center;verticalAlign=middle;whiteSpace=wrap;fontSize=33;fontColor=none;fontStyle=1;rounded=1;labelBackgroundColor=none;strokeWidth=4;sketch=0;" vertex="1" parent="1">
                    <mxGeometry x="849.6235720164609" y="1761.7102670480062" width="83.63522633744856" height="41.817773518559584" as="geometry"/>
                </mxCell>
                <mxCell id="529" value="158" style="text;html=1;strokeColor=none;fillColor=none;align=center;verticalAlign=middle;whiteSpace=wrap;fontSize=33;fontColor=none;fontStyle=1;rounded=1;labelBackgroundColor=none;strokeWidth=4;sketch=0;" vertex="1" parent="1">
                    <mxGeometry x="847.5326913580247" y="1665.5293879553192" width="83.63522633744856" height="41.817773518559584" as="geometry"/>
                </mxCell>
                <mxCell id="530" value="" style="endArrow=none;html=1;strokeWidth=4;fontSize=33;fontColor=none;labelBackgroundColor=none;sketch=0;" edge="1" parent="1">
                    <mxGeometry x="176.36000000000013" y="20" width="53.41393158259918" height="53.41402901033333" as="geometry">
                        <mxPoint x="1169.5283127572015" y="1757.5284896961502" as="sourcePoint"/>
                        <mxPoint x="1217.6185679012342" y="1740.8013802887272" as="targetPoint"/>
                    </mxGeometry>
                </mxCell>
                <mxCell id="531" value="156" style="text;html=1;strokeColor=none;fillColor=none;align=center;verticalAlign=middle;whiteSpace=wrap;fontSize=33;fontColor=none;fontStyle=1;rounded=1;labelBackgroundColor=none;strokeWidth=4;sketch=0;" vertex="1" parent="1">
                    <mxGeometry x="1098.4383703703702" y="1719.8924935294472" width="83.63522633744856" height="41.817773518559584" as="geometry"/>
                </mxCell>
                <mxCell id="532" value="154" style="text;html=1;strokeColor=none;fillColor=none;align=center;verticalAlign=middle;whiteSpace=wrap;fontSize=33;fontColor=none;fontStyle=1;rounded=1;labelBackgroundColor=none;strokeWidth=4;sketch=0;" vertex="1" parent="1">
                    <mxGeometry x="1044.0754732510286" y="1612.4626333602673" width="83.63522633744856" height="41.817773518559584" as="geometry"/>
                </mxCell>
                <mxCell id="533" value="" style="endArrow=classic;html=1;strokeWidth=4;fontSize=33;fontColor=none;exitX=1;exitY=0.5;exitDx=0;exitDy=0;strokeColor=#666600;labelBackgroundColor=none;sketch=0;" edge="1" parent="1" source="656">
                    <mxGeometry x="176.36000000000013" y="20" width="53.41393158259918" height="53.41402901033333" as="geometry">
                        <mxPoint x="757.6248230452675" y="1614.8462464508257" as="sourcePoint"/>
                        <mxPoint x="1150.7103868312752" y="1673.8929426590312" as="targetPoint"/>
                    </mxGeometry>
                </mxCell>
                <mxCell id="534" value="160" style="text;html=1;strokeColor=none;fillColor=none;align=center;verticalAlign=middle;whiteSpace=wrap;fontSize=33;fontColor=none;fontStyle=1;rounded=1;labelBackgroundColor=none;strokeWidth=4;sketch=0;" vertex="1" parent="1">
                    <mxGeometry x="837.0782880658435" y="1556.803176807065" width="83.63522633744856" height="41.817773518559584" as="geometry"/>
                </mxCell>
                <mxCell id="535" value="169" style="text;html=1;strokeColor=none;fillColor=none;align=center;verticalAlign=middle;whiteSpace=wrap;fontSize=33;fontColor=none;fontStyle=1;rounded=1;labelBackgroundColor=none;strokeWidth=4;sketch=0;" vertex="1" parent="1">
                    <mxGeometry x="1004.3487407407406" y="1487.803850501441" width="83.63522633744856" height="41.817773518559584" as="geometry"/>
                </mxCell>
                <mxCell id="536" value="163" style="text;html=1;strokeColor=none;fillColor=none;align=center;verticalAlign=middle;whiteSpace=wrap;fontSize=33;fontColor=none;fontStyle=1;rounded=1;labelBackgroundColor=none;strokeWidth=4;sketch=0;" vertex="1" parent="1">
                    <mxGeometry x="1156.9830288065841" y="1404.168303464322" width="83.63522633744856" height="41.817773518559584" as="geometry"/>
                </mxCell>
                <mxCell id="537" value="157" style="text;html=1;strokeColor=none;fillColor=none;align=center;verticalAlign=middle;whiteSpace=wrap;fontSize=33;fontStyle=0;fontColor=#FF1212;rounded=1;labelBackgroundColor=none;strokeWidth=4;sketch=0;" vertex="1" parent="1">
                    <mxGeometry x="1184.1644773662547" y="1487.803850501441" width="83.63522633744856" height="41.817773518559584" as="geometry"/>
                </mxCell>
                <mxCell id="538" value="" style="endArrow=none;html=1;strokeWidth=4;fontSize=33;fontColor=none;labelBackgroundColor=none;sketch=0;" edge="1" parent="1">
                    <mxGeometry x="176.36000000000013" y="20" width="53.41393158259918" height="53.41402901033333" as="geometry">
                        <mxPoint x="1163.255670781893" y="1577.712063566344" as="sourcePoint"/>
                        <mxPoint x="1326.3443621399174" y="1508.712737260721" as="targetPoint"/>
                        <Array as="points">
                            <mxPoint x="1242.709135802469" y="1529.621624020001"/>
                        </Array>
                    </mxGeometry>
                </mxCell>
                <mxCell id="539" value="168" style="text;html=1;strokeColor=none;fillColor=none;align=center;verticalAlign=middle;whiteSpace=wrap;fontSize=33;fontStyle=0;fontColor=#FF1212;rounded=1;labelBackgroundColor=none;strokeWidth=4;sketch=0;" vertex="1" parent="1">
                    <mxGeometry x="1317.9808395061727" y="1487.803850501441" width="83.63522633744856" height="41.817773518559584" as="geometry"/>
                </mxCell>
                <mxCell id="540" value="175" style="text;html=1;strokeColor=none;fillColor=none;align=center;verticalAlign=middle;whiteSpace=wrap;fontSize=33;fontStyle=0;fontColor=#FF1212;rounded=1;labelBackgroundColor=none;strokeWidth=4;sketch=0;" vertex="1" parent="1">
                    <mxGeometry x="1167.14" y="1284.99" width="58.84" height="41.82" as="geometry"/>
                </mxCell>
                <mxCell id="541" value="165" style="text;html=1;strokeColor=none;fillColor=none;align=center;verticalAlign=middle;whiteSpace=wrap;fontSize=33;fontStyle=0;fontColor=#FF1212;rounded=1;labelBackgroundColor=none;strokeWidth=4;sketch=0;" vertex="1" parent="1">
                    <mxGeometry x="728.3524938271603" y="1157.4434397048208" width="83.63522633744856" height="41.817773518559584" as="geometry"/>
                </mxCell>
                <mxCell id="542" value="" style="endArrow=classic;html=1;strokeWidth=4;fontSize=33;fontColor=none;exitX=1;exitY=0.75;exitDx=0;exitDy=0;entryX=0.935;entryY=1.055;entryDx=0;entryDy=0;entryPerimeter=0;strokeColor=#666600;labelBackgroundColor=none;sketch=0;" edge="1" parent="1" source="657">
                    <mxGeometry x="176.36000000000013" y="20" width="53.41393158259918" height="53.41402901033333" as="geometry">
                        <mxPoint x="879.2095333333336" y="1084.6805137825268" as="sourcePoint"/>
                        <mxPoint x="1098.4383703703702" y="1207.6247679270919" as="targetPoint"/>
                        <Array as="points"/>
                    </mxGeometry>
                </mxCell>
                <mxCell id="543" value="167" style="text;html=1;strokeColor=none;fillColor=none;align=center;verticalAlign=middle;whiteSpace=wrap;fontSize=33;fontColor=none;fontStyle=1;rounded=1;labelBackgroundColor=none;strokeWidth=4;sketch=0;" vertex="1" parent="1">
                    <mxGeometry x="1060.8025185185184" y="1130.2618869177568" width="83.63522633744856" height="41.817773518559584" as="geometry"/>
                </mxCell>
                <mxCell id="544" value="164" style="text;html=1;strokeColor=none;fillColor=none;align=center;verticalAlign=middle;whiteSpace=wrap;fontSize=33;fontStyle=0;fontColor=#FF1212;rounded=1;labelBackgroundColor=none;strokeWidth=4;sketch=0;" vertex="1" parent="1">
                    <mxGeometry x="1044.0754732510286" y="1061.2625606121337" width="83.63522633744856" height="41.817773518559584" as="geometry"/>
                </mxCell>
                <mxCell id="545" value="187" style="text;html=1;strokeColor=none;fillColor=none;align=center;verticalAlign=middle;whiteSpace=wrap;fontSize=33;fontColor=none;fontStyle=1;rounded=1;labelBackgroundColor=none;strokeWidth=4;sketch=0;" vertex="1" parent="1">
                    <mxGeometry x="1006.4396213991768" y="977.6270135750146" width="83.63522633744856" height="41.817773518559584" as="geometry"/>
                </mxCell>
                <mxCell id="546" value="185" style="text;html=1;strokeColor=none;fillColor=none;align=center;verticalAlign=middle;whiteSpace=wrap;fontSize=33;fontColor=none;fontStyle=1;rounded=1;labelBackgroundColor=none;strokeWidth=4;sketch=0;" vertex="1" parent="1">
                    <mxGeometry x="975.0764115226339" y="910.7185759453187" width="83.63522633744856" height="41.817773518559584" as="geometry"/>
                </mxCell>
                <mxCell id="547" value="184" style="text;html=1;strokeColor=none;fillColor=none;align=center;verticalAlign=middle;whiteSpace=wrap;fontSize=33;fontStyle=0;fontColor=#FF1212;rounded=1;labelBackgroundColor=none;strokeWidth=4;sketch=0;" vertex="1" parent="1">
                    <mxGeometry x="949.985843621399" y="829.1739175841285" width="83.63522633744856" height="41.817773518559584" as="geometry"/>
                </mxCell>
                <mxCell id="548" value="188" style="text;html=1;strokeColor=none;fillColor=none;align=center;verticalAlign=middle;whiteSpace=wrap;fontSize=33;fontColor=none;fontStyle=1;rounded=1;labelBackgroundColor=none;strokeWidth=4;sketch=0;" vertex="1" parent="1">
                    <mxGeometry x="920.7135144032918" y="747.6292592229365" width="83.63522633744856" height="41.817773518559584" as="geometry"/>
                </mxCell>
                <mxCell id="549" value="" style="endArrow=none;html=1;strokeWidth=4;fontSize=33;fontColor=none;labelBackgroundColor=none;sketch=0;" edge="1" parent="1">
                    <mxGeometry x="176.36000000000013" y="20" width="53.41393158259918" height="53.41402901033333" as="geometry">
                        <mxPoint x="1639.9764609053495" y="1552.9200978374838" as="sourcePoint"/>
                        <mxPoint x="1159.0739094650207" y="1132.3527755936848" as="targetPoint"/>
                        <Array as="points">
                            <mxPoint x="1368.1619753086416" y="1257.8060961493638"/>
                            <mxPoint x="1284.5267489711932" y="1132.3527755936848"/>
                        </Array>
                    </mxGeometry>
                </mxCell>
                <mxCell id="550" value="" style="endArrow=none;html=1;strokeWidth=4;fontSize=33;fontColor=none;labelBackgroundColor=none;sketch=0;" edge="1" parent="1">
                    <mxGeometry x="176.36000000000013" y="20" width="53.41393158259918" height="53.41402901033333" as="geometry">
                        <mxPoint x="1416.2522304526747" y="1581.8938409182" as="sourcePoint"/>
                        <mxPoint x="1598.158847736625" y="1508.712737260721" as="targetPoint"/>
                        <Array as="points">
                            <mxPoint x="1514.5236213991766" y="1529.621624020001"/>
                        </Array>
                    </mxGeometry>
                </mxCell>
                <mxCell id="551" value="" style="endArrow=classic;html=1;strokeWidth=4;fontSize=33;fontColor=none;exitX=0.5;exitY=1;exitDx=0;exitDy=0;strokeColor=#666600;labelBackgroundColor=none;sketch=0;" edge="1" parent="1" source="652">
                    <mxGeometry x="176.36000000000013" y="20" width="53.41393158259918" height="53.41402901033333" as="geometry">
                        <mxPoint x="1729.8843292181068" y="1362.350529945763" as="sourcePoint"/>
                        <mxPoint x="1744.52049382716" y="1613.25717105712" as="targetPoint"/>
                    </mxGeometry>
                </mxCell>
                <mxCell id="552" value="176" style="text;html=1;strokeColor=none;fillColor=none;align=center;verticalAlign=middle;whiteSpace=wrap;fontSize=33;fontColor=none;strokeWidth=4;fontStyle=1;rounded=1;labelBackgroundColor=none;sketch=0;" vertex="1" parent="1">
                    <mxGeometry x="1363.9802139917692" y="1581.3920276359777" width="83.63522633744856" height="41.817773518559584" as="geometry"/>
                </mxCell>
                <mxCell id="553" value="177" style="text;html=1;strokeColor=none;fillColor=none;align=center;verticalAlign=middle;whiteSpace=wrap;fontSize=33;fontColor=none;fontStyle=1;rounded=1;labelBackgroundColor=none;strokeWidth=4;sketch=0;" vertex="1" parent="1">
                    <mxGeometry x="1451.7972016460903" y="1556.803176807065" width="83.63522633744856" height="41.817773518559584" as="geometry"/>
                </mxCell>
                <mxCell id="554" value="171" style="text;html=1;strokeColor=none;fillColor=none;align=center;verticalAlign=middle;whiteSpace=wrap;fontSize=33;fontColor=none;fontStyle=1;rounded=1;labelBackgroundColor=none;strokeWidth=4;sketch=0;" vertex="1" parent="1">
                    <mxGeometry x="1518.705382716049" y="1527.9280041924994" width="83.63522633744856" height="41.817773518559584" as="geometry"/>
                </mxCell>
                <mxCell id="555" value="172" style="text;html=1;strokeColor=none;fillColor=none;align=center;verticalAlign=middle;whiteSpace=wrap;fontSize=33;fontColor=none;fontStyle=1;rounded=1;labelBackgroundColor=none;strokeWidth=4;sketch=0;" vertex="1" parent="1">
                    <mxGeometry x="1644.1582222222223" y="1555.5068258279898" width="83.63522633744856" height="41.817773518559584" as="geometry"/>
                </mxCell>
                <mxCell id="556" value="179" style="text;html=1;strokeColor=none;fillColor=none;align=center;verticalAlign=middle;whiteSpace=wrap;fontSize=33;fontColor=none;fontStyle=1;rounded=1;labelBackgroundColor=none;strokeWidth=4;sketch=0;" vertex="1" parent="1">
                    <mxGeometry x="1564.7047572016459" y="1445.986076982881" width="83.63522633744856" height="41.817773518559584" as="geometry"/>
                </mxCell>
                <mxCell id="557" value="220" style="text;html=1;strokeColor=none;fillColor=none;align=center;verticalAlign=middle;whiteSpace=wrap;fontSize=33;fontColor=none;fontStyle=1;rounded=1;labelBackgroundColor=none;strokeWidth=4;sketch=0;" vertex="1" parent="1">
                    <mxGeometry x="1395.3434238683126" y="1362.350529945763" width="83.63522633744856" height="41.817773518559584" as="geometry"/>
                </mxCell>
                <mxCell id="558" value="186" style="text;html=1;strokeColor=none;fillColor=none;align=center;verticalAlign=middle;whiteSpace=wrap;fontSize=33;fontColor=none;fontStyle=1;rounded=1;labelBackgroundColor=none;strokeWidth=4;sketch=0;" vertex="1" parent="1">
                    <mxGeometry x="1353.5258106995884" y="1322.623645103131" width="83.63522633744856" height="41.817773518559584" as="geometry"/>
                </mxCell>
                <mxCell id="559" value="182" style="text;html=1;strokeColor=none;fillColor=none;align=center;verticalAlign=middle;whiteSpace=wrap;fontSize=33;fontStyle=0;fontColor=#FF1212;rounded=1;labelBackgroundColor=none;strokeWidth=4;sketch=0;" vertex="1" parent="1">
                    <mxGeometry x="1496.3538684773662" y="1364.441418621691" width="83.63522633744856" height="41.817773518559584" as="geometry"/>
                </mxCell>
                <mxCell id="560" value="178" style="text;html=1;strokeColor=none;fillColor=none;align=center;verticalAlign=middle;whiteSpace=wrap;fontSize=33;fontStyle=0;fontColor=#FF1212;rounded=1;labelBackgroundColor=none;strokeWidth=4;sketch=0;" vertex="1" parent="1">
                    <mxGeometry x="1533.3415473251025" y="1402.077414788394" width="83.63522633744856" height="41.817773518559584" as="geometry"/>
                </mxCell>
                <mxCell id="561" value="181" style="text;html=1;strokeColor=none;fillColor=none;align=center;verticalAlign=middle;whiteSpace=wrap;fontSize=33;fontColor=none;fontStyle=1;rounded=1;labelBackgroundColor=none;strokeWidth=4;sketch=0;" vertex="1" parent="1">
                    <mxGeometry x="1274.072345679012" y="1224.3518773345158" width="83.63522633744856" height="41.817773518559584" as="geometry"/>
                </mxCell>
                <mxCell id="562" value="" style="endArrow=none;html=1;strokeWidth=4;fontSize=33;fontColor=none;labelBackgroundColor=none;sketch=0;" edge="1" parent="1">
                    <mxGeometry x="176.36000000000013" y="20" width="53.41393158259918" height="53.41402901033333" as="geometry">
                        <mxPoint x="1389.070781893004" y="1278.714982908643" as="sourcePoint"/>
                        <mxPoint x="1577.2500411522633" y="1236.8972093900838" as="targetPoint"/>
                    </mxGeometry>
                </mxCell>
                <mxCell id="563" value="170" style="text;html=1;strokeColor=none;fillColor=none;align=center;verticalAlign=middle;whiteSpace=wrap;fontSize=33;fontStyle=0;fontColor=#FF1212;rounded=1;labelBackgroundColor=none;strokeWidth=4;sketch=0;" vertex="1" parent="1">
                    <mxGeometry x="1575.1591604938267" y="1215.9883226308039" width="83.63522633744856" height="41.817773518559584" as="geometry"/>
                </mxCell>
                <mxCell id="564" value="233" style="text;html=1;strokeColor=none;fillColor=none;align=center;verticalAlign=middle;whiteSpace=wrap;fontSize=33;fontColor=none;fontStyle=1;rounded=1;labelBackgroundColor=none;strokeWidth=4;sketch=0;" vertex="1" parent="1">
                    <mxGeometry x="1836.5192427983538" y="1159.5343283807488" width="83.63522633744856" height="41.817773518559584" as="geometry"/>
                </mxCell>
                <mxCell id="565" value="180" style="text;html=1;strokeColor=none;fillColor=none;align=center;verticalAlign=middle;whiteSpace=wrap;fontSize=33;fontStyle=0;fontColor=#FF1212;rounded=1;labelBackgroundColor=none;strokeWidth=4;sketch=0;" vertex="1" parent="1">
                    <mxGeometry x="1301.253794238683" y="1115.6256661862608" width="83.63522633744856" height="41.817773518559584" as="geometry"/>
                </mxCell>
                <mxCell id="566" value="189" style="text;html=1;strokeColor=none;fillColor=none;align=center;verticalAlign=middle;whiteSpace=wrap;fontSize=33;fontStyle=0;fontColor=#FF1212;rounded=1;labelBackgroundColor=none;strokeWidth=4;sketch=0;" vertex="1" parent="1">
                    <mxGeometry x="1188.346238683128" y="747.6292592229365" width="83.63522633744856" height="41.817773518559584" as="geometry"/>
                </mxCell>
                <mxCell id="567" value="" style="verticalLabelPosition=bottom;align=center;html=1;verticalAlign=top;pointerEvents=1;dashed=0;shape=mxgraph.pid2valves.valve;valveType=gate;defState=closed;strokeWidth=4;fillColor=none;fontSize=33;rotation=0;strokeColor=#0000FF;rounded=1;labelBackgroundColor=none;sketch=0;" vertex="1" parent="1">
                    <mxGeometry x="1583.5226831275722" y="599.1761632320504" width="41.81761316872428" height="20.908886759279792" as="geometry"/>
                </mxCell>
                <mxCell id="568" value="" style="endArrow=none;html=1;strokeWidth=4;fontSize=33;fontColor=none;labelBackgroundColor=none;sketch=0;" edge="1" parent="1">
                    <mxGeometry x="176.36000000000013" y="20" width="53.41393158259918" height="53.41402901033333" as="geometry">
                        <mxPoint x="1366.0710946502059" y="776.9017006859285" as="sourcePoint"/>
                        <mxPoint x="1246.8908971193414" y="630.5394933709704" as="targetPoint"/>
                    </mxGeometry>
                </mxCell>
                <mxCell id="569" value="193" style="text;html=1;strokeColor=none;fillColor=none;align=center;verticalAlign=middle;whiteSpace=wrap;fontSize=33;fontColor=none;fontStyle=1;rounded=1;labelBackgroundColor=none;strokeWidth=4;sketch=0;" vertex="1" parent="1">
                    <mxGeometry x="1223.8912098765431" y="678.6299329173135" width="83.63522633744856" height="41.817773518559584" as="geometry"/>
                </mxCell>
                <mxCell id="570" value="191" style="text;html=1;strokeColor=none;fillColor=none;align=center;verticalAlign=middle;whiteSpace=wrap;fontSize=33;fontColor=none;fontStyle=1;rounded=1;labelBackgroundColor=none;strokeWidth=4;sketch=0;" vertex="1" parent="1">
                    <mxGeometry x="1368.16" y="755.99" width="61.84" height="41.82" as="geometry"/>
                </mxCell>
                <mxCell id="571" value="241" style="text;html=1;strokeColor=none;fillColor=none;align=center;verticalAlign=middle;whiteSpace=wrap;fontSize=33;fontColor=none;fontStyle=1;rounded=1;labelBackgroundColor=none;strokeWidth=4;sketch=0;" vertex="1" parent="1">
                    <mxGeometry x="1225.9820905349789" y="525.9950595745704" width="83.63522633744856" height="41.817773518559584" as="geometry"/>
                </mxCell>
                <mxCell id="572" value="202" style="text;html=1;strokeColor=none;fillColor=none;align=center;verticalAlign=middle;whiteSpace=wrap;fontSize=33;fontStyle=0;fontColor=#FF1212;rounded=1;labelBackgroundColor=none;strokeWidth=4;sketch=0;" vertex="1" parent="1">
                    <mxGeometry x="1418.3431111111113" y="551.0857236857064" width="83.63522633744856" height="41.817773518559584" as="geometry"/>
                </mxCell>
                <mxCell id="573" value="203" style="text;html=1;strokeColor=none;fillColor=none;align=center;verticalAlign=middle;whiteSpace=wrap;fontSize=33;fontColor=none;strokeWidth=4;fontStyle=1;rounded=1;labelBackgroundColor=none;sketch=0;" vertex="1" parent="1">
                    <mxGeometry x="1731.975209876543" y="636.8121593987544" width="83.63522633744856" height="41.817773518559584" as="geometry"/>
                </mxCell>
                <mxCell id="574" value="204" style="text;html=1;strokeColor=none;fillColor=none;align=center;verticalAlign=middle;whiteSpace=wrap;fontSize=33;fontStyle=0;fontColor=#FF1212;rounded=1;labelBackgroundColor=none;strokeWidth=4;sketch=0;" vertex="1" parent="1">
                    <mxGeometry x="1610.7041316872428" y="630.5394933709704" width="83.63522633744856" height="41.817773518559584" as="geometry"/>
                </mxCell>
                <mxCell id="575" value="" style="endArrow=none;html=1;strokeWidth=4;fontSize=33;fontColor=none;labelBackgroundColor=none;sketch=0;" edge="1" parent="1">
                    <mxGeometry x="176.36000000000013" y="20" width="53.41393158259918" height="53.41402901033333" as="geometry">
                        <mxPoint x="1614.8858930041151" y="630.5394933709704" as="sourcePoint"/>
                        <mxPoint x="1378.6163786008228" y="285.5428618428532" as="targetPoint"/>
                        <Array as="points">
                            <mxPoint x="1556.3412345679012" y="525.9950595745704"/>
                            <mxPoint x="1451.7972016460903" y="421.45062577817225"/>
                        </Array>
                    </mxGeometry>
                </mxCell>
                <mxCell id="576" value="237" style="text;html=1;strokeColor=none;fillColor=none;align=center;verticalAlign=middle;whiteSpace=wrap;fontSize=33;fontColor=none;fontStyle=1;rounded=1;labelBackgroundColor=none;strokeWidth=4;sketch=0;" vertex="1" parent="1">
                    <mxGeometry x="1579.9890948148145" y="546.9039463338504" width="83.63522633744856" height="41.817773518559584" as="geometry"/>
                </mxCell>
                <mxCell id="577" value="197" style="text;html=1;strokeColor=none;fillColor=none;align=center;verticalAlign=middle;whiteSpace=wrap;fontSize=33;fontColor=none;fontStyle=1;rounded=1;labelBackgroundColor=none;strokeWidth=4;sketch=0;" vertex="1" parent="1">
                    <mxGeometry x="1541.7050699588476" y="492.5408407597233" width="83.63522633744856" height="41.817773518559584" as="geometry"/>
                </mxCell>
                <mxCell id="578" value="199" style="text;html=1;strokeColor=none;fillColor=none;align=center;verticalAlign=middle;whiteSpace=wrap;fontSize=33;fontColor=none;fontStyle=1;rounded=1;labelBackgroundColor=none;strokeWidth=4;sketch=0;" vertex="1" parent="1">
                    <mxGeometry x="1483.1604115226337" y="429.81418048188425" width="83.63522633744856" height="41.817773518559584" as="geometry"/>
                </mxCell>
                <mxCell id="579" value="200" style="text;html=1;strokeColor=none;fillColor=none;align=center;verticalAlign=middle;whiteSpace=wrap;fontSize=33;fontStyle=0;fontColor=#FF1212;rounded=1;labelBackgroundColor=none;strokeWidth=4;sketch=0;" vertex="1" parent="1">
                    <mxGeometry x="1416.2522304526747" y="341.9968560929083" width="83.63522633744856" height="41.817773518559584" as="geometry"/>
                </mxCell>
                <mxCell id="580" value="201" style="text;html=1;strokeColor=none;fillColor=none;align=center;verticalAlign=middle;whiteSpace=wrap;fontSize=33;fontColor=none;fontStyle=1;rounded=1;labelBackgroundColor=none;strokeWidth=4;sketch=0;" vertex="1" parent="1">
                    <mxGeometry x="1375.7309632921806" y="262.5430864076461" width="83.63522633744856" height="41.817773518559584" as="geometry"/>
                </mxCell>
                <mxCell id="581" value="&lt;b style=&quot;font-size: 27px;&quot;&gt;Galiano&lt;/b&gt;" style="whiteSpace=wrap;html=1;strokeWidth=4;fillColor=#ffff88;fontSize=27;strokeColor=#36393d;rounded=1;labelBackgroundColor=none;sketch=0;" vertex="1" parent="1">
                    <mxGeometry x="1629.5220576131687" y="492.5408407597233" width="146.36164609053498" height="41.817773518559584" as="geometry"/>
                </mxCell>
                <mxCell id="582" value="239" style="text;html=1;strokeColor=none;fillColor=none;align=center;verticalAlign=middle;whiteSpace=wrap;fontSize=33;fontColor=none;fontStyle=1;strokeWidth=4;rounded=1;labelBackgroundColor=none;sketch=0;" vertex="1" parent="1">
                    <mxGeometry x="1683.8849547325099" y="544.8130576579224" width="83.63522633744856" height="41.817773518559584" as="geometry"/>
                </mxCell>
                <mxCell id="583" value="205" style="text;html=1;strokeColor=none;fillColor=none;align=center;verticalAlign=middle;whiteSpace=wrap;fontSize=33;fontColor=none;fontStyle=1;rounded=1;labelBackgroundColor=none;strokeWidth=4;sketch=0;" vertex="1" parent="1">
                    <mxGeometry x="1836.5192427983538" y="630.5394933709704" width="83.63522633744856" height="41.817773518559584" as="geometry"/>
                </mxCell>
                <mxCell id="584" value="236" style="text;html=1;strokeColor=none;fillColor=none;align=center;verticalAlign=middle;whiteSpace=wrap;fontSize=33;fontColor=none;fontStyle=1;rounded=1;labelBackgroundColor=none;strokeWidth=4;sketch=0;" vertex="1" parent="1">
                    <mxGeometry x="1951.5176790123455" y="626.3577160191144" width="83.63522633744856" height="41.817773518559584" as="geometry"/>
                </mxCell>
                <mxCell id="585" value="224" style="text;html=1;strokeColor=none;fillColor=none;align=center;verticalAlign=middle;whiteSpace=wrap;fontSize=33;fontColor=none;fontStyle=1;rounded=1;labelBackgroundColor=none;strokeWidth=4;sketch=0;" vertex="1" parent="1">
                    <mxGeometry x="2053.9708312757202" y="620.0850499913304" width="83.63522633744856" height="41.817773518559584" as="geometry"/>
                </mxCell>
                <mxCell id="586" value="222" style="text;html=1;strokeColor=none;fillColor=none;align=center;verticalAlign=middle;whiteSpace=wrap;fontSize=33;fontColor=none;fontStyle=1;rounded=1;labelBackgroundColor=none;strokeWidth=4;sketch=0;" vertex="1" parent="1">
                    <mxGeometry x="2102.061086419753" y="546.9039463338504" width="83.63522633744856" height="41.817773518559584" as="geometry"/>
                </mxCell>
                <mxCell id="587" value="" style="verticalLabelPosition=bottom;align=center;html=1;verticalAlign=top;pointerEvents=1;dashed=0;shape=mxgraph.pid2valves.valve;valveType=gate;defState=closed;strokeWidth=4;fillColor=none;fontSize=33;rotation=-105;strokeColor=#0000FF;rounded=1;labelBackgroundColor=none;sketch=0;" vertex="1" parent="1">
                    <mxGeometry x="1961.9720823045268" y="323.1788580095563" width="41.81761316872428" height="20.908886759279792" as="geometry"/>
                </mxCell>
                <mxCell id="588" value="" style="endArrow=none;html=1;strokeWidth=4;fontSize=33;fontColor=none;labelBackgroundColor=none;sketch=0;" edge="1" parent="1">
                    <mxGeometry x="176.36000000000013" y="20" width="53.41393158259918" height="53.41402901033333" as="geometry">
                        <mxPoint x="1851.1554074074074" y="770.6290346581445" as="sourcePoint"/>
                        <mxPoint x="1932.6997530864196" y="768.5381459822165" as="targetPoint"/>
                    </mxGeometry>
                </mxCell>
                <mxCell id="589" value="" style="verticalLabelPosition=bottom;align=center;html=1;verticalAlign=top;pointerEvents=1;dashed=0;shape=mxgraph.pid2valves.valve;valveType=gate;defState=closed;strokeWidth=4;fillColor=none;fontSize=33;rotation=-90;strokeColor=#0000FF;rounded=1;labelBackgroundColor=none;sketch=0;" vertex="1" parent="1">
                    <mxGeometry x="1846.973646090535" y="760.1745912785045" width="41.81761316872428" height="20.908886759279792" as="geometry"/>
                </mxCell>
                <mxCell id="590" value="223" style="text;html=1;strokeColor=none;fillColor=none;align=center;verticalAlign=middle;whiteSpace=wrap;fontSize=33;fontColor=none;fontStyle=1;rounded=1;labelBackgroundColor=none;strokeWidth=4;sketch=0;" vertex="1" parent="1">
                    <mxGeometry x="1924.3362304526745" y="760.1745912785045" width="83.63522633744856" height="41.817773518559584" as="geometry"/>
                </mxCell>
                <mxCell id="591" value="" style="endArrow=none;html=1;strokeWidth=4;fontSize=33;fontColor=none;labelBackgroundColor=none;sketch=0;" edge="1" parent="1">
                    <mxGeometry x="176.36000000000013" y="20" width="53.41393158259918" height="53.41402901033333" as="geometry">
                        <mxPoint x="1859.518930041152" y="885.6279118341836" as="sourcePoint"/>
                        <mxPoint x="2112.515489711934" y="860.5372477230476" as="targetPoint"/>
                    </mxGeometry>
                </mxCell>
                <mxCell id="592" value="" style="endArrow=none;html=1;strokeWidth=4;fontSize=33;fontColor=none;labelBackgroundColor=none;sketch=0;" edge="1" parent="1">
                    <mxGeometry x="176.36000000000013" y="20" width="53.41393158259918" height="53.41402901033333" as="geometry">
                        <mxPoint x="2033.0620246913581" y="868.9008024267596" as="sourcePoint"/>
                        <mxPoint x="2037.2437860082305" y="965.0816815194466" as="targetPoint"/>
                    </mxGeometry>
                </mxCell>
                <mxCell id="593" value="228" style="text;html=1;strokeColor=none;fillColor=none;align=center;verticalAlign=middle;whiteSpace=wrap;fontSize=33;fontColor=none;fontStyle=1;rounded=1;labelBackgroundColor=none;strokeWidth=4;sketch=0;" vertex="1" parent="1">
                    <mxGeometry x="1857.428049382716" y="829.1739175841285" width="83.63522633744856" height="41.817773518559584" as="geometry"/>
                </mxCell>
                <mxCell id="594" value="225" style="text;html=1;strokeColor=none;fillColor=none;align=center;verticalAlign=middle;whiteSpace=wrap;fontSize=33;fontColor=none;fontStyle=1;rounded=1;labelBackgroundColor=none;strokeWidth=4;sketch=0;" vertex="1" parent="1">
                    <mxGeometry x="2116.6972510288065" y="839.6283609637676" width="83.63522633744856" height="41.817773518559584" as="geometry"/>
                </mxCell>
                <mxCell id="595" value="230" style="text;html=1;strokeColor=none;fillColor=none;align=center;verticalAlign=middle;whiteSpace=wrap;fontSize=33;fontColor=none;fontStyle=1;rounded=1;labelBackgroundColor=none;strokeWidth=4;sketch=0;" vertex="1" parent="1">
                    <mxGeometry x="1924.3362304526745" y="881.4461344823276" width="83.63522633744856" height="41.817773518559584" as="geometry"/>
                </mxCell>
                <mxCell id="596" value="227" style="text;html=1;strokeColor=none;fillColor=none;align=center;verticalAlign=middle;whiteSpace=wrap;fontSize=33;fontColor=none;fontStyle=1;rounded=1;labelBackgroundColor=none;strokeWidth=4;sketch=0;" vertex="1" parent="1">
                    <mxGeometry x="2033.0620246913581" y="952.5363494638787" width="83.63522633744856" height="41.817773518559584" as="geometry"/>
                </mxCell>
                <mxCell id="597" value="" style="endArrow=none;html=1;strokeWidth=4;fontSize=33;fontColor=none;labelBackgroundColor=none;sketch=0;" edge="1" parent="1">
                    <mxGeometry x="176.36000000000013" y="20" width="53.41393158259918" height="53.41402901033333" as="geometry">
                        <mxPoint x="1667.1579094650206" y="1019.4447870935737" as="sourcePoint"/>
                        <mxPoint x="1859.518930041152" y="985.9905682787266" as="targetPoint"/>
                        <Array as="points">
                            <mxPoint x="1723.6116872427983" y="1006.8994550380057"/>
                        </Array>
                    </mxGeometry>
                </mxCell>
                <mxCell id="598" value="226" style="text;html=1;strokeColor=none;fillColor=none;align=center;verticalAlign=middle;whiteSpace=wrap;fontSize=33;fontColor=none;fontStyle=1;rounded=1;labelBackgroundColor=none;strokeWidth=4;sketch=0;" vertex="1" parent="1">
                    <mxGeometry x="1621.158534979424" y="1019.4447870935737" width="83.63522633744856" height="41.817773518559584" as="geometry"/>
                </mxCell>
                <mxCell id="599" value="250" style="text;html=1;strokeColor=none;fillColor=none;align=center;verticalAlign=middle;whiteSpace=wrap;fontSize=33;fontColor=none;fontStyle=1;rounded=1;labelBackgroundColor=none;strokeWidth=4;sketch=0;" vertex="1" parent="1">
                    <mxGeometry x="1679.7031934156375" y="958.8090154916626" width="83.63522633744856" height="41.817773518559584" as="geometry"/>
                </mxCell>
                <mxCell id="600" value="221" style="text;html=1;strokeColor=none;fillColor=none;align=center;verticalAlign=middle;whiteSpace=wrap;fontSize=33;fontColor=none;fontStyle=1;rounded=1;labelBackgroundColor=none;strokeWidth=4;sketch=0;" vertex="1" parent="1">
                    <mxGeometry x="1752.8840164609055" y="1006.8994550380057" width="83.63522633744856" height="41.817773518559584" as="geometry"/>
                </mxCell>
                <mxCell id="601" value="261" style="text;html=1;strokeColor=none;fillColor=none;align=center;verticalAlign=middle;whiteSpace=wrap;fontSize=33;fontColor=none;fontStyle=1;rounded=1;labelBackgroundColor=none;strokeWidth=4;sketch=0;" vertex="1" parent="1">
                    <mxGeometry x="1974.5173662551438" y="1215.9883226308039" width="83.63522633744856" height="41.817773518559584" as="geometry"/>
                </mxCell>
                <mxCell id="602" value="260" style="text;html=1;strokeColor=none;fillColor=none;align=center;verticalAlign=middle;whiteSpace=wrap;fontSize=33;fontColor=none;fontStyle=1;rounded=1;labelBackgroundColor=none;strokeWidth=4;sketch=0;" vertex="1" parent="1">
                    <mxGeometry x="2102.061086419753" y="1186.7158811678128" width="83.63522633744856" height="41.817773518559584" as="geometry"/>
                </mxCell>
                <mxCell id="603" value="&lt;b style=&quot;font-size: 27px;&quot;&gt;Viagro&lt;/b&gt;" style="whiteSpace=wrap;html=1;strokeWidth=4;fillColor=#ffff88;fontSize=27;strokeColor=#36393d;rounded=1;labelBackgroundColor=none;sketch=0;" vertex="1" parent="1">
                    <mxGeometry x="1899.2456625514405" y="1006.8994550380057" width="135.9072427983539" height="41.817773518559584" as="geometry"/>
                </mxCell>
                <mxCell id="604" value="&lt;b style=&quot;font-size: 27px;&quot;&gt;La Goleta&lt;/b&gt;" style="whiteSpace=wrap;html=1;strokeWidth=4;fillColor=#ffff88;fontSize=27;strokeColor=#36393d;rounded=1;labelBackgroundColor=none;sketch=0;" vertex="1" parent="1">
                    <mxGeometry x="2200.3324773662557" y="1182.5341038159568" width="167.27045267489711" height="41.817773518559584" as="geometry"/>
                </mxCell>
                <mxCell id="605" value="" style="endArrow=none;html=1;strokeWidth=4;fontSize=33;fontColor=none;labelBackgroundColor=none;sketch=0;" edge="1" parent="1">
                    <mxGeometry x="176.36000000000013" y="20" width="53.41393158259918" height="53.41402901033333" as="geometry">
                        <mxPoint x="1890.882139917695" y="1487.803850501441" as="sourcePoint"/>
                        <mxPoint x="2357.1485267489716" y="1293.351203640139" as="targetPoint"/>
                        <Array as="points">
                            <mxPoint x="2141.7878189300413" y="1404.168303464322"/>
                            <mxPoint x="2162.6966255144034" y="1362.350529945763"/>
                            <mxPoint x="2267.2406584362143" y="1320.532756427203"/>
                        </Array>
                    </mxGeometry>
                </mxCell>
                <mxCell id="606" value="209" style="text;html=1;strokeColor=none;fillColor=none;align=center;verticalAlign=middle;whiteSpace=wrap;fontSize=33;fontColor=none;fontStyle=1;rounded=1;labelBackgroundColor=none;strokeWidth=4;sketch=0;" vertex="1" parent="1">
                    <mxGeometry x="1970.3356049382714" y="1456.440520362521" width="83.63522633744856" height="41.817773518559584" as="geometry"/>
                </mxCell>
                <mxCell id="607" value="207" style="text;html=1;strokeColor=none;fillColor=none;align=center;verticalAlign=middle;whiteSpace=wrap;fontSize=33;fontColor=none;fontStyle=1;rounded=1;labelBackgroundColor=none;strokeWidth=4;sketch=0;" vertex="1" parent="1">
                    <mxGeometry x="2007.9714567901233" y="1376.986750677258" width="83.63522633744856" height="41.817773518559584" as="geometry"/>
                </mxCell>
                <mxCell id="608" value="&lt;b style=&quot;font-size: 33px;&quot;&gt;254&lt;/b&gt;" style="text;html=1;strokeColor=none;fillColor=none;align=center;verticalAlign=middle;whiteSpace=wrap;fontSize=33;fontColor=none;rounded=1;labelBackgroundColor=none;strokeWidth=4;sketch=0;" vertex="1" parent="1">
                    <mxGeometry x="2082.197720164609" y="1320.532756427203" width="83.63522633744856" height="41.817773518559584" as="geometry"/>
                </mxCell>
                <mxCell id="609" value="218" style="text;html=1;strokeColor=none;fillColor=none;align=center;verticalAlign=middle;whiteSpace=wrap;fontSize=33;fontColor=none;fontStyle=1;rounded=1;labelBackgroundColor=none;strokeWidth=4;sketch=0;" vertex="1" parent="1">
                    <mxGeometry x="2198.241596707819" y="1274.533205556787" width="83.63522633744856" height="41.817773518559584" as="geometry"/>
                </mxCell>
                <mxCell id="610" value="216" style="text;html=1;strokeColor=none;fillColor=none;align=center;verticalAlign=middle;whiteSpace=wrap;fontSize=33;fontColor=none;fontStyle=1;rounded=1;labelBackgroundColor=none;strokeWidth=4;sketch=0;" vertex="1" parent="1">
                    <mxGeometry x="2352.966765432099" y="1257.8060961493638" width="83.63522633744856" height="41.817773518559584" as="geometry"/>
                </mxCell>
                <mxCell id="611" value="" style="endArrow=none;html=1;strokeWidth=4;fontSize=33;fontColor=none;labelBackgroundColor=none;sketch=0;" edge="1" parent="1">
                    <mxGeometry x="176.36000000000013" y="20" width="53.41393158259918" height="53.41402901033333" as="geometry">
                        <mxPoint x="2298.603868312757" y="1738.7104916127992" as="sourcePoint"/>
                        <mxPoint x="2068.606995884774" y="1425.077190223602" as="targetPoint"/>
                        <Array as="points">
                            <mxPoint x="2288.149465020576" y="1717.8016048535192"/>
                            <mxPoint x="2283.9677037037036" y="1675.9838313349592"/>
                            <mxPoint x="2242.1500905349794" y="1655.0749445756792"/>
                            <mxPoint x="2158.5148641975306" y="1592.34828429784"/>
                            <mxPoint x="2116.6972510288065" y="1529.621624020001"/>
                        </Array>
                    </mxGeometry>
                </mxCell>
                <mxCell id="612" value="" style="endArrow=none;html=1;strokeWidth=4;fontSize=33;fontColor=none;labelBackgroundColor=none;sketch=0;" edge="1" parent="1">
                    <mxGeometry x="176.36000000000013" y="20" width="53.41393158259918" height="53.41402901033333" as="geometry">
                        <mxPoint x="2194.059835390947" y="1494.076516529225" as="sourcePoint"/>
                        <mxPoint x="2141.7878189300413" y="1399.986526112466" as="targetPoint"/>
                        <Array as="points">
                            <mxPoint x="2183.6054320987655" y="1445.986076982881"/>
                        </Array>
                    </mxGeometry>
                </mxCell>
                <mxCell id="613" value="" style="endArrow=none;html=1;strokeWidth=4;fontSize=33;fontColor=none;labelBackgroundColor=none;sketch=0;" edge="1" parent="1">
                    <mxGeometry x="176.36000000000013" y="20" width="53.41393158259918" height="53.41402901033333" as="geometry">
                        <mxPoint x="2325.7853168724278" y="1519.167180640361" as="sourcePoint"/>
                        <mxPoint x="2244.2409711934156" y="1330.987199806843" as="targetPoint"/>
                    </mxGeometry>
                </mxCell>
                <mxCell id="614" value="" style="endArrow=none;html=1;strokeWidth=4;fontSize=33;fontColor=none;labelBackgroundColor=none;sketch=0;" edge="1" parent="1">
                    <mxGeometry x="176.36000000000013" y="20" width="53.41393158259918" height="53.41402901033333" as="geometry">
                        <mxPoint x="2336.239720164609" y="1634.1660578164" as="sourcePoint"/>
                        <mxPoint x="2499.328411522634" y="1341.441643186483" as="targetPoint"/>
                        <Array as="points">
                            <mxPoint x="2288.149465020576" y="1571.4393975385601"/>
                            <mxPoint x="2288.149465020576" y="1550.530510779281"/>
                            <mxPoint x="2336.239720164609" y="1508.712737260721"/>
                            <mxPoint x="2392.693497942387" y="1487.803850501441"/>
                            <mxPoint x="2392.693497942387" y="1466.894963742161"/>
                            <mxPoint x="2434.5111111111114" y="1445.986076982881"/>
                        </Array>
                    </mxGeometry>
                </mxCell>
                <mxCell id="615" value="243" style="text;html=1;strokeColor=none;fillColor=none;align=center;verticalAlign=middle;whiteSpace=wrap;fontSize=33;fontColor=none;fontStyle=1;rounded=1;labelBackgroundColor=none;strokeWidth=4;sketch=0;" vertex="1" parent="1">
                    <mxGeometry x="1911.7909465020575" y="1531.2106994137066" width="83.63522633744856" height="41.817773518559584" as="geometry"/>
                </mxCell>
                <mxCell id="616" value="210" style="text;html=1;strokeColor=none;fillColor=none;align=center;verticalAlign=middle;whiteSpace=wrap;fontSize=33;fontColor=none;fontStyle=1;rounded=1;labelBackgroundColor=none;strokeWidth=4;sketch=0;" vertex="1" parent="1">
                    <mxGeometry x="2091.606683127572" y="1418.804524195818" width="83.63522633744856" height="41.817773518559584" as="geometry"/>
                </mxCell>
                <mxCell id="617" value="215" style="text;html=1;strokeColor=none;fillColor=none;align=center;verticalAlign=middle;whiteSpace=wrap;fontSize=33;fontColor=none;fontStyle=1;rounded=1;labelBackgroundColor=none;strokeWidth=4;sketch=0;" vertex="1" parent="1">
                    <mxGeometry x="2281.8768230452674" y="1391.622971408754" width="83.63522633744856" height="41.817773518559584" as="geometry"/>
                </mxCell>
                <mxCell id="618" value="211" style="text;html=1;strokeColor=none;fillColor=none;align=center;verticalAlign=middle;whiteSpace=wrap;fontSize=33;fontColor=none;fontStyle=1;rounded=1;labelBackgroundColor=none;strokeWidth=4;sketch=0;" vertex="1" parent="1">
                    <mxGeometry x="2158.5148641975306" y="1488.2011193498674" width="83.63522633744856" height="41.817773518559584" as="geometry"/>
                </mxCell>
                <mxCell id="619" value="214" style="text;html=1;strokeColor=none;fillColor=none;align=center;verticalAlign=middle;whiteSpace=wrap;fontSize=33;fontColor=none;fontStyle=1;rounded=1;labelBackgroundColor=none;strokeWidth=4;sketch=0;" vertex="1" parent="1">
                    <mxGeometry x="2133.4242962962967" y="1529.621624020001" width="83.63522633744856" height="41.817773518559584" as="geometry"/>
                </mxCell>
                <mxCell id="620" value="208" style="text;html=1;strokeColor=none;fillColor=none;align=center;verticalAlign=middle;whiteSpace=wrap;fontSize=33;fontColor=none;fontStyle=1;rounded=1;labelBackgroundColor=none;strokeWidth=4;sketch=0;" vertex="1" parent="1">
                    <mxGeometry x="1953.6085596707821" y="1610.3717446843393" width="83.63522633744856" height="41.817773518559584" as="geometry"/>
                </mxCell>
                <mxCell id="621" value="248" style="text;html=1;strokeColor=none;fillColor=none;align=center;verticalAlign=middle;whiteSpace=wrap;fontSize=33;fontStyle=0;fontColor=#FF1212;rounded=1;labelBackgroundColor=none;strokeWidth=4;sketch=0;" vertex="1" parent="1">
                    <mxGeometry x="1941.0632757201643" y="1568.5539711657802" width="83.63522633744856" height="41.817773518559584" as="geometry"/>
                </mxCell>
                <mxCell id="622" value="206" style="text;html=1;strokeColor=none;fillColor=none;align=center;verticalAlign=middle;whiteSpace=wrap;fontSize=33;fontColor=none;fontStyle=1;rounded=1;labelBackgroundColor=none;strokeWidth=4;sketch=0;" vertex="1" parent="1">
                    <mxGeometry x="2102.061086419753" y="1606.1899673324833" width="83.63522633744856" height="41.817773518559584" as="geometry"/>
                </mxCell>
                <mxCell id="623" value="&lt;b style=&quot;font-size: 33px;&quot;&gt;217&lt;/b&gt;" style="text;html=1;strokeColor=none;fillColor=none;align=center;verticalAlign=middle;whiteSpace=wrap;fontSize=33;fontColor=none;rounded=1;labelBackgroundColor=none;strokeWidth=4;sketch=0;" vertex="1" parent="1">
                    <mxGeometry x="2311.1491522633746" y="1514.985403288505" width="83.63522633744856" height="41.817773518559584" as="geometry"/>
                </mxCell>
                <mxCell id="624" value="246" style="text;html=1;strokeColor=none;fillColor=none;align=center;verticalAlign=middle;whiteSpace=wrap;fontSize=33;fontColor=none;fontStyle=1;rounded=1;labelBackgroundColor=none;strokeWidth=4;sketch=0;" vertex="1" parent="1">
                    <mxGeometry x="2334.148839506173" y="1606.1899673324833" width="83.63522633744856" height="41.817773518559584" as="geometry"/>
                </mxCell>
                <mxCell id="625" value="219" style="text;html=1;strokeColor=none;fillColor=none;align=center;verticalAlign=middle;whiteSpace=wrap;fontSize=33;fontColor=none;fontStyle=1;rounded=1;labelBackgroundColor=none;strokeWidth=4;sketch=0;" vertex="1" parent="1">
                    <mxGeometry x="2436.601991769547" y="1433.440744927314" width="83.63522633744856" height="41.817773518559584" as="geometry"/>
                </mxCell>
                <mxCell id="626" value="213" style="text;html=1;strokeColor=none;fillColor=none;align=center;verticalAlign=middle;whiteSpace=wrap;fontSize=33;fontColor=none;fontStyle=1;rounded=1;labelBackgroundColor=none;strokeWidth=4;sketch=0;" vertex="1" parent="1">
                    <mxGeometry x="2497.2375308641977" y="1322.623645103131" width="83.63522633744856" height="41.817773518559584" as="geometry"/>
                </mxCell>
                <mxCell id="627" value="Autobuses&lt;br style=&quot;font-size: 27px;&quot;&gt;Bernardo" style="whiteSpace=wrap;html=1;strokeWidth=4;fillColor=#ffff88;fontSize=27;strokeColor=#36393d;fontStyle=1;rounded=1;labelBackgroundColor=none;sketch=0;" vertex="1" parent="1">
                    <mxGeometry x="2559.963950617284" y="1172.0796604363168" width="156.81604938271605" height="87.81732438897512" as="geometry"/>
                </mxCell>
                <mxCell id="628" value="" style="endArrow=classic;html=1;strokeWidth=4;fontSize=33;fontColor=none;exitX=0;exitY=0.75;exitDx=0;exitDy=0;strokeColor=#666600;labelBackgroundColor=none;sketch=0;" edge="1" parent="1" source="627">
                    <mxGeometry x="176.36000000000013" y="20" width="53.41393158259918" height="53.41402901033333" as="geometry">
                        <mxPoint x="2553.6913086419754" y="1268.260539529003" as="sourcePoint"/>
                        <mxPoint x="2267.2406584362143" y="1500.349182557009" as="targetPoint"/>
                    </mxGeometry>
                </mxCell>
                <mxCell id="629" value="212" style="text;html=1;strokeColor=none;fillColor=none;align=center;verticalAlign=middle;whiteSpace=wrap;fontSize=33;fontColor=none;strokeWidth=4;fontStyle=1;rounded=1;labelBackgroundColor=none;sketch=0;" vertex="1" parent="1">
                    <mxGeometry x="2294.422106995885" y="1719.8924935294472" width="83.63522633744856" height="41.817773518559584" as="geometry"/>
                </mxCell>
                <mxCell id="630" value="140" style="text;html=1;strokeColor=none;fillColor=none;align=center;verticalAlign=middle;whiteSpace=wrap;fontSize=33;fontColor=none;fontStyle=1;rounded=1;labelBackgroundColor=none;strokeWidth=4;sketch=0;" vertex="1" parent="1">
                    <mxGeometry x="2380.14821399177" y="2169.4335588539625" width="83.63522633744856" height="41.817773518559584" as="geometry"/>
                </mxCell>
                <mxCell id="631" value="141" style="text;html=1;strokeColor=none;fillColor=none;align=center;verticalAlign=middle;whiteSpace=wrap;fontSize=33;fontColor=none;fontStyle=1;rounded=1;labelBackgroundColor=none;strokeWidth=4;sketch=0;" vertex="1" parent="1">
                    <mxGeometry x="2254.7" y="2244.71" width="55.3" height="41.82" as="geometry"/>
                </mxCell>
                <mxCell id="632" value="139" style="text;html=1;strokeColor=none;fillColor=none;align=center;verticalAlign=middle;whiteSpace=wrap;fontSize=33;fontColor=none;fontStyle=1;rounded=1;labelBackgroundColor=none;strokeWidth=4;sketch=0;" vertex="1" parent="1">
                    <mxGeometry x="2116.6972510288065" y="2480.9759715672317" width="83.63522633744856" height="41.817773518559584" as="geometry"/>
                </mxCell>
                <mxCell id="633" value="&lt;b style=&quot;font-size: 27px;&quot;&gt;Hípica&lt;/b&gt;" style="whiteSpace=wrap;html=1;strokeWidth=4;fillColor=#ffff88;fontSize=27;strokeColor=#36393d;rounded=1;labelBackgroundColor=none;sketch=0;" vertex="1" parent="1">
                    <mxGeometry x="2208.696" y="592.9034972042664" width="125.45283950617284" height="62.726660277839365" as="geometry"/>
                </mxCell>
                <mxCell id="634" value="&lt;b style=&quot;font-size: 27px;&quot;&gt;Ventosa rambla&lt;/b&gt;" style="whiteSpace=wrap;html=1;strokeWidth=4;fontSize=27;fillColor=#ffff88;strokeColor=#36393d;rounded=1;labelBackgroundColor=none;sketch=0;" vertex="1" parent="1">
                    <mxGeometry x="1872.0642139917695" y="80.63577160191107" width="146.36164609053498" height="83.63554703711917" as="geometry"/>
                </mxCell>
                <mxCell id="635" value="138" style="text;html=1;strokeColor=none;fillColor=none;align=center;verticalAlign=middle;whiteSpace=wrap;fontSize=33;fontColor=none;fontStyle=1;rounded=1;labelBackgroundColor=none;strokeWidth=4;sketch=0;" vertex="1" parent="1">
                    <mxGeometry x="1759.1566584362135" y="26.272666027784" width="83.63522633744856" height="41.817773518559584" as="geometry"/>
                </mxCell>
                <mxCell id="636" value="251" style="text;html=1;strokeColor=none;fillColor=none;align=center;verticalAlign=middle;whiteSpace=wrap;fontSize=33;fontColor=none;fontStyle=1;rounded=1;labelBackgroundColor=none;strokeWidth=4;sketch=0;" vertex="1" parent="1">
                    <mxGeometry x="1826.0648395061726" y="216.54353553723013" width="83.63522633744856" height="41.817773518559584" as="geometry"/>
                </mxCell>
                <mxCell id="637" value="" style="endArrow=none;html=1;strokeWidth=4;fontSize=33;fontColor=none;labelBackgroundColor=none;sketch=0;" edge="1" parent="1">
                    <mxGeometry x="176.36000000000013" y="20" width="53.41393158259918" height="53.41402901033333" as="geometry">
                        <mxPoint x="1723.6116872427983" y="233.27064494465412" as="sourcePoint"/>
                        <mxPoint x="1846.973646090535" y="141.27154320382306" as="targetPoint"/>
                    </mxGeometry>
                </mxCell>
                <mxCell id="638" value="" style="verticalLabelPosition=bottom;align=center;html=1;verticalAlign=top;pointerEvents=1;dashed=0;shape=mxgraph.pid2valves.valve;valveType=gate;defState=closed;strokeWidth=4;fillColor=none;fontSize=33;rotation=-120;strokeColor=#0000FF;rounded=1;labelBackgroundColor=none;sketch=0;" vertex="1" parent="1">
                    <mxGeometry x="1809.3377942386828" y="143.36243187975106" width="41.81761316872428" height="20.908886759279792" as="geometry"/>
                </mxCell>
                <mxCell id="639" value="" style="verticalLabelPosition=bottom;align=center;html=1;verticalAlign=top;pointerEvents=1;dashed=0;shape=mxgraph.pid2valves.valve;valveType=gate;defState=closed;strokeWidth=4;fillColor=none;fontSize=33;rotation=-85;strokeColor=#0000FF;rounded=1;labelBackgroundColor=none;sketch=0;" vertex="1" parent="1">
                    <mxGeometry x="1715.2481646090537" y="620.0850499913304" width="41.81761316872428" height="20.908886759279792" as="geometry"/>
                </mxCell>
                <mxCell id="640" value="" style="endArrow=none;html=1;strokeWidth=4;fontSize=33;fontColor=none;labelBackgroundColor=none;sketch=0;" edge="1" parent="1">
                    <mxGeometry x="176.36000000000013" y="20" width="53.41393158259918" height="53.41402901033333" as="geometry">
                        <mxPoint x="1957.790320987654" y="337.8150787410523" as="sourcePoint"/>
                        <mxPoint x="2221.2412839506173" y="505.0861728152913" as="targetPoint"/>
                        <Array as="points">
                            <mxPoint x="2033.0620246913581" y="316.9061919817732"/>
                            <mxPoint x="2074.8796378600823" y="421.45062577817225"/>
                            <mxPoint x="2200.3324773662557" y="379.63285225961226"/>
                        </Array>
                    </mxGeometry>
                </mxCell>
                <mxCell id="641" value="255" style="text;html=1;strokeColor=none;fillColor=none;align=center;verticalAlign=middle;whiteSpace=wrap;fontSize=33;fontColor=none;fontStyle=1;rounded=1;labelBackgroundColor=none;strokeWidth=4;sketch=0;" vertex="1" parent="1">
                    <mxGeometry x="1715.2481646090537" y="151.72598658346215" width="83.63522633744856" height="41.817773518559584" as="geometry"/>
                </mxCell>
                <mxCell id="642" value="144" style="text;html=1;strokeColor=none;fillColor=none;align=center;verticalAlign=middle;whiteSpace=wrap;fontSize=33;fontColor=none;fontStyle=1;rounded=1;labelBackgroundColor=none;strokeWidth=4;sketch=0;" vertex="1" parent="1">
                    <mxGeometry x="1717.3390452674894" y="226.99797891687012" width="83.63522633744856" height="41.817773518559584" as="geometry"/>
                </mxCell>
                <mxCell id="643" value="242" style="text;html=1;strokeColor=none;fillColor=none;align=center;verticalAlign=middle;whiteSpace=wrap;fontSize=33;fontColor=none;fontStyle=1;rounded=1;labelBackgroundColor=none;strokeWidth=4;sketch=0;" vertex="1" parent="1">
                    <mxGeometry x="1865.791572016461" y="289.7246391947092" width="83.63522633744856" height="41.817773518559584" as="geometry"/>
                </mxCell>
                <mxCell id="644" value="249" style="text;html=1;strokeColor=none;fillColor=none;align=center;verticalAlign=middle;whiteSpace=wrap;fontSize=33;fontColor=none;fontStyle=1;rounded=1;labelBackgroundColor=none;strokeWidth=4;sketch=0;" vertex="1" parent="1">
                    <mxGeometry x="2049.7890699588474" y="312.7244146299172" width="83.63522633744856" height="41.817773518559584" as="geometry"/>
                </mxCell>
                <mxCell id="645" value="198" style="text;html=1;strokeColor=none;fillColor=none;align=center;verticalAlign=middle;whiteSpace=wrap;fontSize=33;fontColor=none;fontStyle=1;rounded=1;labelBackgroundColor=none;strokeWidth=4;sketch=0;" vertex="1" parent="1">
                    <mxGeometry x="1966.1538436213991" y="373.36018623182827" width="83.63522633744856" height="41.817773518559584" as="geometry"/>
                </mxCell>
                <mxCell id="646" value="229" style="text;html=1;strokeColor=none;fillColor=none;align=center;verticalAlign=middle;whiteSpace=wrap;fontSize=33;fontColor=none;fontStyle=1;rounded=1;labelBackgroundColor=none;strokeWidth=4;sketch=0;" vertex="1" parent="1">
                    <mxGeometry x="1911.7909465020575" y="421.45062577817225" width="83.63522633744856" height="41.817773518559584" as="geometry"/>
                </mxCell>
                <mxCell id="647" value="235" style="text;html=1;strokeColor=none;fillColor=none;align=center;verticalAlign=middle;whiteSpace=wrap;fontSize=33;fontColor=none;fontStyle=1;rounded=1;labelBackgroundColor=none;strokeWidth=4;sketch=0;" vertex="1" parent="1">
                    <mxGeometry x="1842.7899999999997" y="502.98999999999995" width="71.39" height="41.82" as="geometry"/>
                </mxCell>
                <mxCell id="648" value="231" style="text;html=1;strokeColor=none;fillColor=none;align=center;verticalAlign=middle;whiteSpace=wrap;fontSize=33;fontColor=none;fontStyle=1;rounded=1;labelBackgroundColor=none;strokeWidth=4;sketch=0;" vertex="1" parent="1">
                    <mxGeometry x="2175.24" y="341.99" width="74.3" height="41.82" as="geometry"/>
                </mxCell>
                <mxCell id="649" value="232" style="text;html=1;strokeColor=none;fillColor=none;align=center;verticalAlign=middle;whiteSpace=wrap;fontSize=33;fontColor=none;fontStyle=1;rounded=1;labelBackgroundColor=none;strokeWidth=4;sketch=0;" vertex="1" parent="1">
                    <mxGeometry x="2214.968641975309" y="475.8137313522993" width="83.63522633744856" height="62.726660277839365" as="geometry"/>
                </mxCell>
                <mxCell id="650" value="240" style="text;html=1;strokeColor=none;fillColor=none;align=center;verticalAlign=middle;whiteSpace=wrap;fontSize=33;fontStyle=0;fontColor=#FF1212;rounded=1;labelBackgroundColor=none;strokeWidth=4;sketch=0;" vertex="1" parent="1">
                    <mxGeometry x="2204.514238683128" y="409.30256257103065" width="83.63522633744856" height="41.817773518559584" as="geometry"/>
                </mxCell>
                <mxCell id="651" value="162" style="text;html=1;strokeColor=none;fillColor=none;align=center;verticalAlign=middle;whiteSpace=wrap;fontSize=33;fontColor=none;fontStyle=1;rounded=1;labelBackgroundColor=none;strokeWidth=4;sketch=0;" vertex="1" parent="1">
                    <mxGeometry x="943.7132016460905" y="1376.986750677258" width="83.63522633744856" height="41.817773518559584" as="geometry"/>
                </mxCell>
                <mxCell id="652" value="Publifiestas&lt;br style=&quot;font-size: 27px;&quot;&gt;Conde" style="whiteSpace=wrap;html=1;strokeWidth=4;fillColor=#ffff88;fontSize=27;strokeColor=#36393d;fontStyle=1;rounded=1;labelBackgroundColor=none;sketch=0;" vertex="1" parent="1">
                    <mxGeometry x="1642.0673415637857" y="1289.169426288283" width="173.54309465020575" height="87.81732438897512" as="geometry"/>
                </mxCell>
                <mxCell id="653" value="&lt;b style=&quot;font-size: 27px;&quot;&gt;Cementerio&lt;/b&gt;" style="whiteSpace=wrap;html=1;strokeWidth=4;fillColor=#ffff88;fontSize=27;strokeColor=#36393d;rounded=1;labelBackgroundColor=none;sketch=0;" vertex="1" parent="1">
                    <mxGeometry x="2490.9648888888887" y="1477.349407121801" width="167.27045267489711" height="41.817773518559584" as="geometry"/>
                </mxCell>
                <mxCell id="654" value="&lt;b style=&quot;font-size: 27px;&quot;&gt;Ordoño&lt;/b&gt;" style="whiteSpace=wrap;html=1;strokeWidth=4;fillColor=#ffff88;fontSize=27;strokeColor=#36393d;rounded=1;labelBackgroundColor=none;sketch=0;" vertex="1" parent="1">
                    <mxGeometry x="1010.6213827160491" y="678.6299329173135" width="146.36164609053498" height="41.817773518559584" as="geometry"/>
                </mxCell>
                <mxCell id="655" value="&lt;b style=&quot;font-size: 27px;&quot;&gt;Hospital Virgen del Mar&lt;/b&gt;" style="whiteSpace=wrap;html=1;strokeWidth=4;fillColor=#ffff88;fontSize=27;strokeColor=#36393d;rounded=1;labelBackgroundColor=none;sketch=0;" vertex="1" parent="1">
                    <mxGeometry x="1244.8000164609052" y="1000.6267890102217" width="213.26982716049383" height="75.27199233340724" as="geometry"/>
                </mxCell>
                <mxCell id="656" value="&lt;span style=&quot;font-size: 27px;&quot;&gt;Los Lagartos&lt;/span&gt;" style="whiteSpace=wrap;html=1;strokeWidth=4;fillColor=#ffff88;fontSize=27;strokeColor=#36393d;fontStyle=1;rounded=1;labelBackgroundColor=none;sketch=0;" vertex="1" parent="1">
                    <mxGeometry x="571.5364444444444" y="1598.620950325624" width="186.08837860082303" height="41.817773518559584" as="geometry"/>
                </mxCell>
                <mxCell id="657" value="&lt;span style=&quot;font-size: 27px;&quot;&gt;Gasolinera El Mamí&lt;/span&gt;" style="whiteSpace=wrap;html=1;strokeWidth=4;fillColor=#ffff88;fontSize=27;strokeColor=#36393d;fontStyle=1;rounded=1;labelBackgroundColor=none;sketch=0;" vertex="1" parent="1">
                    <mxGeometry x="732.5342551440331" y="1019.4447870935737" width="154.72516872427983" height="79.4537696852632" as="geometry"/>
                </mxCell>
                <mxCell id="658" value="" style="verticalLabelPosition=bottom;align=center;html=1;verticalAlign=top;pointerEvents=1;dashed=0;shape=mxgraph.pid2valves.valve;valveType=gate;defState=closed;strokeWidth=4;fontSize=33;rotation=75;fillColor=none;strokeColor=#0000FF;rounded=1;labelBackgroundColor=none;sketch=0;" vertex="1" parent="1">
                    <mxGeometry x="763.897465020576" y="2031.4349062427154" width="41.81761316872428" height="20.908886759279792" as="geometry"/>
                </mxCell>
                <mxCell id="659" value="" style="verticalLabelPosition=bottom;align=center;html=1;verticalAlign=top;pointerEvents=1;dashed=0;shape=mxgraph.pid2valves.valve;valveType=gate;defState=closed;strokeWidth=4;fillColor=none;fontSize=33;rotation=5;strokeColor=#0000FF;rounded=1;labelBackgroundColor=none;sketch=0;" vertex="1" parent="1">
                    <mxGeometry x="523.4461893004113" y="2633.610844909974" width="41.81761316872428" height="20.908886759279792" as="geometry"/>
                </mxCell>
                <mxCell id="660" value="&lt;b style=&quot;font-size: 27px;&quot;&gt;Balsa&lt;/b&gt;" style="whiteSpace=wrap;html=1;strokeWidth=4;fontSize=27;fillColor=#ffff88;strokeColor=#36393d;rounded=1;labelBackgroundColor=none;sketch=0;" vertex="1" parent="1">
                    <mxGeometry x="1518.705382716049" y="20" width="98.27139094650205" height="60.635771601911394" as="geometry"/>
                </mxCell>
                <mxCell id="661" value="" style="verticalLabelPosition=bottom;align=center;html=1;verticalAlign=top;pointerEvents=1;dashed=0;shape=mxgraph.pid2valves.valve;valveType=gate;defState=closed;strokeWidth=4;fillColor=none;fontSize=33;rotation=0;strokeColor=#0000FF;rounded=1;labelBackgroundColor=none;sketch=0;" vertex="1" parent="1">
                    <mxGeometry x="1361.094798683127" y="1772.1647104276462" width="41.81761316872428" height="20.908886759279792" as="geometry"/>
                </mxCell>
                <mxCell id="662" value="" style="verticalLabelPosition=bottom;align=center;html=1;verticalAlign=top;pointerEvents=1;dashed=0;shape=mxgraph.pid2valves.valve;valveType=gate;defState=closed;strokeWidth=4;fillColor=none;fontSize=33;rotation=-20;strokeColor=#0000FF;rounded=1;labelBackgroundColor=none;sketch=0;" vertex="1" parent="1">
                    <mxGeometry x="1374.4346172839505" y="1803.5280405665662" width="41.81761316872428" height="20.908886759279792" as="geometry"/>
                </mxCell>
                <mxCell id="663" value="La Cañada" style="whiteSpace=wrap;html=1;strokeWidth=4;fillColor=#ffff88;fontSize=27;strokeColor=#36393d;fontStyle=1;rounded=1;labelBackgroundColor=none;sketch=0;" vertex="1" parent="1">
                    <mxGeometry x="1744.52049382716" y="1901.7998083351813" width="159.95237037037035" height="64.02301125691471" as="geometry"/>
                </mxCell>
                <mxCell id="664" value="Los Picos" style="whiteSpace=wrap;html=1;strokeWidth=4;fillColor=#ffff88;fontSize=27;strokeColor=#36393d;fontStyle=1;rounded=1;labelBackgroundColor=none;sketch=0;" vertex="1" parent="1">
                    <mxGeometry x="1308.5718765432093" y="2009.8778439938988" width="118.13475720164608" height="75.92016782294492" as="geometry"/>
                </mxCell>
                <mxCell id="665" value="Cruz de Martos" style="whiteSpace=wrap;html=1;strokeWidth=4;fillColor=#ffff88;fontSize=27;strokeColor=#36393d;fontStyle=1;rounded=1;labelBackgroundColor=none;sketch=0;" vertex="1" parent="1">
                    <mxGeometry x="1449.7063209876542" y="2348.601809494231" width="137.9981234567901" height="75.92016782294492" as="geometry"/>
                </mxCell>
                <mxCell id="666" value="FIAPA" style="whiteSpace=wrap;html=1;strokeWidth=4;fillColor=#ffff88;fontSize=27;strokeColor=#36393d;fontStyle=1;rounded=1;labelBackgroundColor=none;sketch=0;" vertex="1" parent="1">
                    <mxGeometry x="2062.334353909465" y="2085.7980118168434" width="123.36195884773663" height="43.90866219448756" as="geometry"/>
                </mxCell>
                <mxCell id="667" value="GYM" style="whiteSpace=wrap;html=1;strokeWidth=4;fillColor=#ffff88;fontSize=27;strokeColor=#36393d;fontStyle=1;rounded=1;labelBackgroundColor=none;sketch=0;" vertex="1" parent="1">
                    <mxGeometry x="2407.3296625514404" y="1968.7082459648764" width="89.9078683127572" height="43.90866219448756" as="geometry"/>
                </mxCell>
                <mxCell id="668" value="Universidad" style="whiteSpace=wrap;html=1;strokeWidth=4;fillColor=#ffff88;fontSize=27;strokeColor=#36393d;fontStyle=1;rounded=1;labelBackgroundColor=none;sketch=0;" vertex="1" parent="1">
                    <mxGeometry x="2091.606683127572" y="2679.61039578039" width="178.7702962962963" height="45.99955087041553" as="geometry"/>
                </mxCell>
                <mxCell id="669" value="CASI" style="whiteSpace=wrap;html=1;strokeWidth=4;fillColor=#ffff88;fontSize=27;strokeColor=#36393d;fontStyle=1;rounded=1;labelBackgroundColor=none;sketch=0;" vertex="1" parent="1">
                    <mxGeometry x="1097.3929300411519" y="1950.6011500313398" width="90.95330864197531" height="57.1021697395931" as="geometry"/>
                </mxCell>
                <mxCell id="670" value="Paraje el Americano" style="whiteSpace=wrap;html=1;strokeWidth=4;fillColor=#ffff88;fontSize=27;strokeColor=#36393d;fontStyle=1;rounded=1;labelBackgroundColor=none;sketch=0;" vertex="1" parent="1">
                    <mxGeometry x="1878.336855967078" y="3193.969010058672" width="167.27045267489711" height="90.15911970601445" as="geometry"/>
                </mxCell>
                <mxCell id="671" value="Parque Andarax Norte" style="whiteSpace=wrap;html=1;strokeWidth=4;fillColor=#ffff88;fontSize=27;strokeColor=#36393d;fontStyle=1;rounded=1;labelBackgroundColor=none;sketch=0;" vertex="1" parent="1">
                    <mxGeometry x="663.5351934156379" y="2888.0510878836494" width="142.17988477366254" height="113.55616398964855" as="geometry"/>
                </mxCell>
                <mxCell id="672" value="8" style="text;html=1;strokeColor=none;fillColor=none;align=center;verticalAlign=middle;whiteSpace=wrap;fontSize=33;fontStyle=0;fontColor=#FF1212;rounded=1;labelBackgroundColor=none;strokeWidth=4;sketch=0;" vertex="1" parent="1">
                    <mxGeometry x="577.8090864197529" y="3196.0598987346" width="83.63522633744856" height="41.817773518559584" as="geometry"/>
                </mxCell>
                <mxCell id="673" value="" style="verticalLabelPosition=bottom;align=center;outlineConnect=0;dashed=0;html=1;verticalAlign=top;shape=mxgraph.pid.flow_sensors.rotameter;strokeWidth=6;fillColor=none;fontSize=33;rotation=-90;strokeColor=#009900;rounded=1;labelBackgroundColor=none;sketch=0;" vertex="1" parent="1">
                    <mxGeometry x="1125.6198189300412" y="3438.6029851422463" width="29.272329218106993" height="17.521647104276465" as="geometry"/>
                </mxCell>
                <mxCell id="674" value="" style="verticalLabelPosition=bottom;align=center;outlineConnect=0;dashed=0;html=1;verticalAlign=top;shape=mxgraph.pid.flow_sensors.rotameter;strokeWidth=6;fillColor=none;fontSize=33;rotation=-90;strokeColor=#009900;rounded=1;labelBackgroundColor=none;sketch=0;" vertex="1" parent="1">
                    <mxGeometry x="1338.8896460905348" y="3438.6029851422463" width="29.272329218106993" height="17.521647104276465" as="geometry"/>
                </mxCell>
                <mxCell id="675" value="" style="verticalLabelPosition=bottom;align=center;outlineConnect=0;dashed=0;html=1;verticalAlign=top;shape=mxgraph.pid.flow_sensors.rotameter;strokeWidth=6;fillColor=none;fontSize=33;rotation=-90;strokeColor=#009900;rounded=1;labelBackgroundColor=none;sketch=0;" vertex="1" parent="1">
                    <mxGeometry x="1550.7167655967078" y="3288.7280848517275" width="29.272329218106993" height="17.521647104276465" as="geometry"/>
                </mxCell>
                <mxCell id="676" value="Bobar" style="whiteSpace=wrap;html=1;strokeWidth=4;fillColor=#ffff88;fontSize=27;strokeColor=#36393d;fontStyle=1;rounded=1;labelBackgroundColor=none;sketch=0;" vertex="1" parent="1">
                    <mxGeometry x="989.7125761316875" y="3246.9103113331685" width="100.36227160493826" height="41.817773518559584" as="geometry"/>
                </mxCell>
                <mxCell id="677" value="SECTOR - IV" style="text;html=1;strokeColor=none;fillColor=none;align=center;verticalAlign=middle;whiteSpace=wrap;fontSize=82;fontStyle=1;strokeWidth=4;rounded=1;sketch=0;" vertex="1" parent="1">
                    <mxGeometry x="650.44" y="103.41999999999949" width="650" height="108.94" as="geometry"/>
                </mxCell>
                <mxCell id="678" value="&lt;font style=&quot;font-size: 46px&quot;&gt;Actualizado: 04/05/2021&lt;/font&gt;" style="text;html=1;strokeColor=none;fillColor=none;align=center;verticalAlign=middle;whiteSpace=wrap;fontSize=80;fontStyle=1;strokeWidth=4;rounded=1;sketch=0;" vertex="1" parent="1">
                    <mxGeometry x="645.44" y="217.36" width="660" height="72.36" as="geometry"/>
                </mxCell>
                <mxCell id="679" value="" style="verticalLabelPosition=bottom;align=center;outlineConnect=0;dashed=0;html=1;verticalAlign=top;shape=mxgraph.pid.flow_sensors.rotameter;strokeWidth=6;fillColor=none;fontSize=33;rotation=-90;strokeColor=#009900;rounded=1;labelBackgroundColor=none;sketch=0;" vertex="1" parent="1">
                    <mxGeometry x="1884.6082880658432" y="1541.7687698014918" width="29.272329218106993" height="17.521647104276465" as="geometry"/>
                </mxCell>
                <mxCell id="680" value="" style="verticalLabelPosition=bottom;align=center;outlineConnect=0;dashed=0;html=1;verticalAlign=top;shape=mxgraph.pid.flow_sensors.rotameter;strokeWidth=6;fillColor=none;fontSize=33;rotation=-90;strokeColor=#009900;rounded=1;labelBackgroundColor=none;sketch=0;" vertex="1" parent="1">
                    <mxGeometry x="1616.9782880658431" y="1555.5087698014918" width="29.272329218106993" height="17.521647104276465" as="geometry"/>
                </mxCell>
                <mxCell id="681" value="" style="verticalLabelPosition=bottom;align=center;outlineConnect=0;dashed=0;html=1;verticalAlign=top;shape=mxgraph.pid.flow_sensors.rotameter;strokeWidth=6;fillColor=none;fontSize=33;rotation=-90;strokeColor=#009900;rounded=1;labelBackgroundColor=none;sketch=0;" vertex="1" parent="1">
                    <mxGeometry x="2076.9682880658434" y="421.44876980149184" width="29.272329218106993" height="17.521647104276465" as="geometry"/>
                </mxCell>
                <mxCell id="682" value="234" style="text;html=1;strokeColor=none;fillColor=none;align=center;verticalAlign=middle;whiteSpace=wrap;fontSize=33;fontColor=none;fontStyle=1;rounded=1;labelBackgroundColor=none;strokeWidth=4;sketch=0;" vertex="1" parent="1">
                    <mxGeometry x="2242.1499999999996" y="344.09000000000003" width="74.3" height="41.82" as="geometry"/>
                </mxCell>
                <mxCell id="683" value="238" style="text;html=1;strokeColor=none;fillColor=none;align=center;verticalAlign=middle;whiteSpace=wrap;fontSize=33;fontColor=none;fontStyle=1;rounded=1;labelBackgroundColor=none;strokeWidth=4;sketch=0;" vertex="1" parent="1">
                    <mxGeometry x="1882.2199999999998" y="471.63" width="71.39" height="41.82" as="geometry"/>
                </mxCell>
                <mxCell id="684" value="192" style="text;html=1;strokeColor=none;fillColor=none;align=center;verticalAlign=middle;whiteSpace=wrap;fontSize=33;fontColor=none;fontStyle=1;rounded=1;labelBackgroundColor=none;strokeWidth=4;sketch=0;" vertex="1" parent="1">
                    <mxGeometry x="1364.8700000000001" y="787.35" width="61.84" height="41.82" as="geometry"/>
                </mxCell>
                <mxCell id="685" value="109" style="text;html=1;strokeColor=none;fillColor=none;align=center;verticalAlign=middle;whiteSpace=wrap;fontSize=33;fontStyle=1;rounded=1;labelBackgroundColor=none;strokeWidth=4;sketch=0;" vertex="1" parent="1">
                    <mxGeometry x="1301.25" y="1749.16" width="51.93" height="31.36" as="geometry"/>
                </mxCell>
                <mxCell id="686" value="53" style="text;html=1;strokeColor=none;fillColor=none;align=center;verticalAlign=middle;whiteSpace=wrap;fontSize=33;fontColor=none;fontStyle=1;rounded=1;labelBackgroundColor=none;strokeWidth=4;sketch=0;" vertex="1" parent="1">
                    <mxGeometry x="1369.32" y="2903.3399999999997" width="46.93" height="41.82" as="geometry"/>
                </mxCell>
                <mxCell id="687" value="142" style="text;html=1;strokeColor=none;fillColor=none;align=center;verticalAlign=middle;whiteSpace=wrap;fontSize=33;fontColor=none;fontStyle=1;rounded=1;labelBackgroundColor=none;strokeWidth=4;sketch=0;" vertex="1" parent="1">
                    <mxGeometry x="2312.2999999999997" y="2232.16" width="55.3" height="41.82" as="geometry"/>
                </mxCell>
                <mxCell id="688" value="195" style="text;html=1;strokeColor=none;fillColor=none;align=center;verticalAlign=middle;whiteSpace=wrap;fontSize=33;fontStyle=0;fontColor=#FF1212;rounded=1;labelBackgroundColor=none;strokeWidth=4;sketch=0;" vertex="1" parent="1">
                    <mxGeometry x="1167.14" y="1316.3500000000001" width="58.84" height="41.82" as="geometry"/>
                </mxCell>
                <mxCell id="689" value="147" style="text;html=1;strokeColor=none;fillColor=none;align=center;verticalAlign=middle;whiteSpace=wrap;fontStyle=1;fontSize=33;rounded=1;labelBackgroundColor=none;strokeWidth=4;sketch=0;" vertex="1" parent="1">
                    <mxGeometry x="1596.95" y="1843.25" width="61.84" height="41.82" as="geometry"/>
                </mxCell>
            </root>
        </mxGraphModel>
    </diagram>
</mxfile>